ply
format ascii 1.0
element vertex 613
property float x
property float y
property float z
property uchar red
property uchar green
property uchar blue
end_header
0.565168 0.351890 0.161623 255 0 0
0.566680 0.352092 0.161604 255 0 0
0.568813 0.352390 0.161580 255 0 0
0.570907 0.352714 0.161563 255 0 0
0.572844 0.352888 0.161612 255 0 0
0.575178 0.352547 0.162076 255 0 0
0.577096 0.352724 0.162124 255 0 0
0.579198 0.353037 0.162106 255 0 0
0.581277 0.353264 0.162076 255 0 0
0.583332 0.353544 0.162051 255 0 0
0.585419 0.353860 0.162028 255 0 0
0.587483 0.354100 0.162000 255 0 0
0.589563 0.354406 0.161976 255 0 0
0.591642 0.354631 0.161946 255 0 0
0.593742 0.354904 0.161915 255 0 0
0.595508 0.355185 0.161854 255 0 0
0.598154 0.356274 0.161260 255 0 0
0.599919 0.356556 0.161198 255 0 0
0.602027 0.356839 0.161168 255 0 0
0.604103 0.357113 0.161142 255 0 0
0.606212 0.357396 0.161112 255 0 0
0.607970 0.357674 0.161052 255 0 0
0.610670 0.358697 0.160454 255 0 0
0.612327 0.358869 0.160474 255 0 0
0.614615 0.358592 0.160921 255 0 0
0.616267 0.358709 0.160938 255 0 0
0.618975 0.359795 0.160343 255 0 0
0.620801 0.360082 0.160283 255 0 0
0.622349 0.360290 0.160260 255 0 0
0.565351 0.349036 0.161419 255 0 0
0.566866 0.349284 0.161409 255 0 0
0.568863 0.349465 0.161455 255 0 0
0.571218 0.349054 0.161917 255 0 0
0.573140 0.349221 0.161964 255 0 0
0.575232 0.349556 0.161954 255 0 0
0.577179 0.349779 0.162013 255 0 0
0.579205 0.349433 0.162401 255 0 0
0.581691 0.350414 0.161926 255 0 0
0.583367 0.350546 0.161936 255 0 0
0.585386 0.350230 0.162314 255 0 0
0.587795 0.351098 0.161952 255 0 0
0.589483 0.350805 0.162265 255 0 0
0.592009 0.351801 0.161790 255 0 0
0.593787 0.352088 0.161726 255 0 0
0.595881 0.352361 0.161695 255 0 0
0.597952 0.352578 0.161665 255 0 0
0.600031 0.352841 0.161638 255 0 0
0.602098 0.353113 0.161612 255 0 0
0.604164 0.353386 0.161586 255 0 0
0.606244 0.353649 0.161559 255 0 0
0.608313 0.353866 0.161528 255 0 0
0.610378 0.354125 0.161502 255 0 0
0.612480 0.354404 0.161472 255 0 0
0.614227 0.354683 0.161413 255 0 0
0.616901 0.355851 0.160817 255 0 0
0.618651 0.356075 0.160754 255 0 0
0.620766 0.356345 0.160723 255 0 0
0.622835 0.356616 0.160697 255 0 0
0.624952 0.356880 0.160666 255 0 0
0.626696 0.357097 0.160605 255 0 0
0.629409 0.358194 0.159999 255 0 0
0.631200 0.358465 0.159936 255 0 0
0.632989 0.358695 0.159867 255 0 0
0.635418 0.359786 0.159228 255 0 0
0.637877 0.360844 0.158581 255 0 0
0.639316 0.361109 0.158491 255 0 0
0.642163 0.362179 0.157870 255 0 0
0.643355 0.362375 0.157824 255 0 0
0.565428 0.345996 0.161329 255 0 0
0.567216 0.345632 0.161753 255 0 0
0.569194 0.345739 0.161814 255 0 0
0.571258 0.346067 0.161798 255 0 0
0.573327 0.346406 0.161783 255 0 0
0.575250 0.346572 0.161831 255 0 0
0.577585 0.346173 0.162293 255 0 0
0.579522 0.346379 0.162339 255 0 0
0.581337 0.346611 0.162266 255 0 0
0.583807 0.347575 0.161799 255 0 0
0.585754 0.347293 0.162178 255 0 0
0.587733 0.347429 0.162238 255 0 0
0.589816 0.347733 0.162220 255 0 0
0.591865 0.347963 0.162191 255 0 0
0.593937 0.348226 0.162164 255 0 0
0.595996 0.348497 0.162139 255 0 0
0.598056 0.348769 0.162113 255 0 0
0.600116 0.349042 0.162087 255 0 0
0.602174 0.349311 0.162060 255 0 0
0.604301 0.349566 0.162013 255 0 0
0.606087 0.349649 0.161868 255 0 0
0.608670 0.350955 0.161369 255 0 0
0.610408 0.351259 0.161313 255 0 0
0.612505 0.351592 0.161287 255 0 0
0.614566 0.351862 0.161261 255 0 0
0.616628 0.352076 0.161230 255 0 0
0.618717 0.352327 0.161202 255 0 0
0.620765 0.352559 0.161174 255 0 0
0.622860 0.352884 0.161147 255 0 0
0.624604 0.353156 0.161088 255 0 0
0.627301 0.354258 0.160484 255 0 0
0.629073 0.354485 0.160417 255 0 0
0.630848 0.354754 0.160354 255 0 0
0.633605 0.355865 0.159740 255 0 0
0.635008 0.356077 0.159653 255 0 0
0.637821 0.357129 0.159026 255 0 0
0.639235 0.357380 0.158941 255 0 0
0.642078 0.358452 0.158318 255 0 0
0.643266 0.358638 0.158271 255 0 0
0.565683 0.342225 0.161797 255 0 0
0.567147 0.341928 0.162141 255 0 0
0.569639 0.342902 0.161687 255 0 0
0.571268 0.343081 0.161691 255 0 0
0.573640 0.342677 0.162151 255 0 0
0.575547 0.342843 0.162199 255 0 0
0.577620 0.343169 0.162182 255 0 0
0.579691 0.343460 0.162154 255 0 0
0.581494 0.343734 0.162077 255 0 0
0.583922 0.344648 0.161615 255 0 0
0.585905 0.344358 0.161987 255 0 0
0.587869 0.344545 0.162050 255 0 0
0.589939 0.344813 0.162030 255 0 0
0.591995 0.345087 0.162004 255 0 0
0.594050 0.345359 0.161978 255 0 0
0.596105 0.345631 0.161953 255 0 0
0.598159 0.345903 0.161927 255 0 0
0.600214 0.346176 0.161901 255 0 0
0.602296 0.346458 0.161871 255 0 0
0.604075 0.346731 0.161801 255 0 0
0.606624 0.347971 0.161306 255 0 0
0.608427 0.348043 0.161165 255 0 0
0.610433 0.348185 0.161202 255 0 0
0.612631 0.347835 0.161645 255 0 0
0.614597 0.348006 0.161709 255 0 0
0.616698 0.348277 0.161685 255 0 0
0.618435 0.348554 0.161625 255 0 0
0.621023 0.349564 0.161143 255 0 0
0.622920 0.349228 0.161513 255 0 0
0.624571 0.349369 0.161542 255 0 0
0.627284 0.350470 0.160945 255 0 0
0.629019 0.350736 0.160884 255 0 0
0.631144 0.351022 0.160851 255 0 0
0.632875 0.351279 0.160792 255 0 0
0.635636 0.352332 0.160174 255 0 0
0.637020 0.352591 0.160088 255 0 0
0.639804 0.353646 0.159466 255 0 0
0.641599 0.353919 0.159408 255 0 0
0.643122 0.354116 0.159387 255 0 0
0.565989 0.338707 0.162147 255 0 0
0.567448 0.338939 0.162131 255 0 0
0.569560 0.339180 0.162103 255 0 0
0.571626 0.339449 0.162076 255 0 0
0.573674 0.339774 0.162055 255 0 0
0.575722 0.340051 0.162030 255 0 0
0.577777 0.340259 0.162000 255 0 0
0.579852 0.340527 0.161969 255 0 0
0.581611 0.340818 0.161903 255 0 0
0.584069 0.341780 0.161435 255 0 0
0.586072 0.341450 0.161809 255 0 0
0.588003 0.341609 0.161865 255 0 0
0.590072 0.341876 0.161845 255 0 0
0.592122 0.342147 0.161819 255 0 0
0.594172 0.342418 0.161793 255 0 0
0.596222 0.342689 0.161768 255 0 0
0.598269 0.342957 0.161741 255 0 0
0.600357 0.343200 0.161698 255 0 0
0.602459 0.343272 0.161577 255 0 0
0.604179 0.343511 0.161506 255 0 0
0.606762 0.344796 0.161026 255 0 0
0.608547 0.345068 0.160962 255 0 0
0.610539 0.345237 0.161015 255 0 0
0.612756 0.344709 0.161369 255 0 0
0.614641 0.344910 0.161437 255 0 0
0.616700 0.345376 0.161499 255 0 0
0.618805 0.345642 0.161466 255 0 0
0.620883 0.345653 0.161345 255 0 0
0.622864 0.345966 0.161335 255 0 0
0.624901 0.346444 0.161395 255 0 0
0.626970 0.346687 0.161377 255 0 0
0.629031 0.346946 0.161350 255 0 0
0.631114 0.347222 0.161320 255 0 0
0.632826 0.347490 0.161263 255 0 0
0.635539 0.348608 0.160655 255 0 0
0.637261 0.348872 0.160595 255 0 0
0.639385 0.349157 0.160562 255 0 0
0.641092 0.349418 0.160505 255 0 0
0.643915 0.350475 0.159884 255 0 0
0.645051 0.350658 0.159839 255 0 0
0.566194 0.334955 0.162627 255 0 0
0.567643 0.335199 0.162612 255 0 0
0.569774 0.335479 0.162585 255 0 0
0.571821 0.335688 0.162555 255 0 0
0.573887 0.335955 0.162524 255 0 0
0.575623 0.336241 0.162459 255 0 0
0.578199 0.337384 0.161871 255 0 0
0.579951 0.337657 0.161805 255 0 0
0.582024 0.337865 0.161769 255 0 0
0.584070 0.338076 0.161739 255 0 0
0.586127 0.338387 0.161716 255 0 0
0.588158 0.338672 0.161692 255 0 0
0.590204 0.338943 0.161667 255 0 0
0.592248 0.339214 0.161641 255 0 0
0.594293 0.339485 0.161616 255 0 0
0.596338 0.339758 0.161590 255 0 0
0.598414 0.340037 0.161560 255 0 0
0.600142 0.340321 0.161501 255 0 0
0.602746 0.341652 0.161018 255 0 0
0.604469 0.341832 0.160935 255 0 0
0.606564 0.341900 0.160816 255 0 0
0.608648 0.342146 0.160774 255 0 0
0.610711 0.342445 0.160759 255 0 0
0.612769 0.342906 0.160822 255 0 0
0.614663 0.343083 0.160884 255 0 0
0.616940 0.342336 0.161142 255 0 0
0.618571 0.342480 0.161147 255 0 0
0.621188 0.344021 0.160782 255 0 0
0.622827 0.344178 0.160793 255 0 0
0.625031 0.343659 0.161139 255 0 0
0.626998 0.343819 0.161200 255 0 0
0.629039 0.344105 0.161183 255 0 0
0.631088 0.344430 0.161161 255 0 0
0.633131 0.344698 0.161134 255 0 0
0.635189 0.344903 0.161111 255 0 0
0.637200 0.345032 0.161185 255 0 0
0.638954 0.344760 0.161551 255 0 0
0.641625 0.345700 0.161063 255 0 0
0.643404 0.345970 0.161004 255 0 0
0.644893 0.346170 0.160982 255 0 0
0.566254 0.332034 0.162583 255 0 0
0.568052 0.331617 0.163001 255 0 0
0.569665 0.331765 0.163023 255 0 0
0.572244 0.332908 0.162444 255 0 0
0.573990 0.333181 0.162376 255 0 0
0.576057 0.333384 0.162341 255 0 0
0.578123 0.333589 0.162305 255 0 0
0.579863 0.333857 0.162239 255 0 0
0.582456 0.334995 0.161648 255 0 0
0.584175 0.335238 0.161581 255 0 0
0.586241 0.335562 0.161554 255 0 0
0.588285 0.335839 0.161529 255 0 0
0.590324 0.336108 0.161503 255 0 0
0.592362 0.336377 0.161478 255 0 0
0.594414 0.336634 0.161451 255 0 0
0.596456 0.336842 0.161421 255 0 0
0.598492 0.337104 0.161395 255 0 0
0.600561 0.337372 0.161364 255 0 0
0.602278 0.337591 0.161299 255 0 0
0.604941 0.338716 0.160698 255 0 0
0.606661 0.338940 0.160632 255 0 0
0.608730 0.339212 0.160602 255 0 0
0.610773 0.339481 0.160576 255 0 0
0.612813 0.339746 0.160551 255 0 0
0.614875 0.340046 0.160536 255 0 0
0.616921 0.340522 0.160595 255 0 0
0.618880 0.340796 0.160580 255 0 0
0.620960 0.340851 0.160472 255 0 0
0.622956 0.341004 0.160525 255 0 0
0.625083 0.340707 0.160961 255 0 0
0.627049 0.340877 0.161037 255 0 0
0.628994 0.341029 0.161107 255 0 0
0.631129 0.340678 0.161543 255 0 0
0.633092 0.340842 0.161613 255 0 0
0.635123 0.341128 0.161597 255 0 0
0.637182 0.341456 0.161581 255 0 0
0.639172 0.341650 0.161660 255 0 0
0.640908 0.341390 0.162022 255 0 0
0.643648 0.342282 0.161532 255 0 0
0.644760 0.342467 0.161484 255 0 0
0.568622 0.328800 0.162946 255 0 0
0.570055 0.328971 0.162927 255 0 0
0.572198 0.329133 0.162888 255 0 0
0.573924 0.329390 0.162820 255 0 0
0.576489 0.330538 0.162231 255 0 0
0.578214 0.330824 0.162165 255 0 0
0.580303 0.331098 0.162129 255 0 0
0.582037 0.331325 0.162057 255 0 0
0.584511 0.332228 0.161574 255 0 0
0.586473 0.331943 0.161958 255 0 0
0.588394 0.332093 0.162021 255 0 0
0.590445 0.332357 0.162001 255 0 0
0.592508 0.332633 0.161971 255 0 0
0.594227 0.332901 0.161906 255 0 0
0.596855 0.333968 0.161305 255 0 0
0.598573 0.334185 0.161238 255 0 0
0.600636 0.334452 0.161207 255 0 0
0.602700 0.334721 0.161176 255 0 0
0.604408 0.334937 0.161111 255 0 0
0.607073 0.336074 0.160508 255 0 0
0.608785 0.336290 0.160443 255 0 0
0.610850 0.336559 0.160412 255 0 0
0.612889 0.336828 0.160387 255 0 0
0.614926 0.337097 0.160361 255 0 0
0.616963 0.337360 0.160336 255 0 0
0.619001 0.337628 0.160310 255 0 0
0.621049 0.337899 0.160291 255 0 0
0.623012 0.338054 0.160355 255 0 0
0.625129 0.337564 0.160723 255 0 0
0.627063 0.337914 0.160863 255 0 0
0.629052 0.338123 0.160954 255 0 0
0.631140 0.337844 0.161390 255 0 0
0.633104 0.338072 0.161472 255 0 0
0.635058 0.338216 0.161545 255 0 0
0.637188 0.337834 0.161989 255 0 0
0.639045 0.337909 0.162152 255 0 0
0.641147 0.337607 0.162596 255 0 0
0.643161 0.337810 0.162668 255 0 0
0.644599 0.337999 0.162657 255 0 0
0.568866 0.324996 0.163444 255 0 0
0.569981 0.325197 0.163391 255 0 0
0.572605 0.326354 0.162799 255 0 0
0.574314 0.326625 0.162730 255 0 0
0.576385 0.326825 0.162695 255 0 0
0.578428 0.327016 0.162664 255 0 0
0.580429 0.327289 0.162640 255 0 0
0.582455 0.327618 0.162618 255 0 0
0.584483 0.327889 0.162594 255 0 0
0.586508 0.328161 0.162568 255 0 0
0.588530 0.328430 0.162542 255 0 0
0.590554 0.328697 0.162517 255 0 0
0.592625 0.328960 0.162486 255 0 0
0.594340 0.329178 0.162412 255 0 0
0.596651 0.330253 0.161773 255 0 0
0.598975 0.331340 0.161132 255 0 0
0.600696 0.331621 0.161063 255 0 0
0.602757 0.331898 0.161033 255 0 0
0.604829 0.332152 0.161001 255 0 0
0.606530 0.332309 0.160932 255 0 0
0.609195 0.333430 0.160327 255 0 0
0.610899 0.333646 0.160261 255 0 0
0.612960 0.333912 0.160231 255 0 0
0.614993 0.334180 0.160205 255 0 0
0.617025 0.334449 0.160180 255 0 0
0.619057 0.334717 0.160154 255 0 0
0.621086 0.334988 0.160130 255 0 0
0.623137 0.335306 0.160124 255 0 0
0.625074 0.335695 0.160263 255 0 0
0.627201 0.335192 0.160641 255 0 0
0.629059 0.335267 0.160804 255 0 0
0.631110 0.334805 0.161342 255 0 0
0.633136 0.334346 0.161869 255 0 0
0.635083 0.334526 0.161955 255 0 0
0.637037 0.334775 0.162038 255 0 0
0.639141 0.334482 0.162483 255 0 0
0.640995 0.334554 0.162650 255 0 0
0.643155 0.334205 0.163097 255 0 0
0.644479 0.334324 0.163166 255 0 0
0.569022 0.322183 0.163315 255 0 0
0.570417 0.322365 0.163297 255 0 0
0.572514 0.322575 0.163267 255 0 0
0.574575 0.322839 0.163236 255 0 0
0.576274 0.323118 0.163169 255 0 0
0.578859 0.324262 0.162585 255 0 0
0.580413 0.324425 0.162595 255 0 0
0.582742 0.324015 0.163054 255 0 0
0.584607 0.324161 0.163108 255 0 0
0.586626 0.324444 0.163091 255 0 0
0.588643 0.324772 0.163069 255 0 0
0.590710 0.325042 0.163038 255 0 0
0.592401 0.325255 0.162970 255 0 0
0.595028 0.326401 0.162365 255 0 0
0.596411 0.326616 0.162261 255 0 0
0.599069 0.327616 0.161648 255 0 0
0.600775 0.327880 0.161581 255 0 0
0.602872 0.328146 0.161544 255 0 0
0.604607 0.328343 0.161464 255 0 0
0.607232 0.329418 0.160862 255 0 0
0.608642 0.329627 0.160752 255 0 0
0.611301 0.330715 0.160149 255 0 0
0.612999 0.330990 0.160086 255 0 0
0.615059 0.331270 0.160057 255 0 0
0.617086 0.331538 0.160031 255 0 0
0.619113 0.331806 0.160006 255 0 0
0.621154 0.332068 0.159987 255 0 0
0.623080 0.332195 0.160045 255 0 0
0.625227 0.331663 0.160421 255 0 0
0.627040 0.331944 0.160648 255 0 0
0.629198 0.331651 0.161119 255 0 0
0.631065 0.331783 0.161294 255 0 0
0.633165 0.331493 0.161744 255 0 0
0.634995 0.331547 0.161914 255 0 0
0.637025 0.331087 0.162452 255 0 0
0.639046 0.330706 0.162989 255 0 0
0.640988 0.330891 0.163081 255 0 0
0.642996 0.331112 0.163186 255 0 0
0.644464 0.330766 0.163559 255 0 0
0.569207 0.319297 0.163180 255 0 0
0.570598 0.319500 0.163163 255 0 0
0.572686 0.319781 0.163137 255 0 0
0.574699 0.320048 0.163112 255 0 0
0.576705 0.320301 0.163086 255 0 0
0.578720 0.320502 0.163057 255 0 0
0.580733 0.320781 0.163033 255 0 0
0.582746 0.321162 0.163014 255 0 0
0.584763 0.321452 0.162998 255 0 0
0.586629 0.321596 0.163054 255 0 0
0.588936 0.321198 0.163510 255 0 0
0.590466 0.321350 0.163525 255 0 0
0.593079 0.322485 0.162934 255 0 0
0.594808 0.322689 0.162859 255 0 0
0.596584 0.322879 0.162771 255 0 0
0.599159 0.323872 0.162177 255 0 0
0.600885 0.324150 0.162105 255 0 0
0.602652 0.324423 0.162018 255 0 0
0.604939 0.325530 0.161389 255 0 0
0.607280 0.326624 0.160748 255 0 0
0.608693 0.326840 0.160633 255 0 0
0.611330 0.327927 0.160029 255 0 0
0.613076 0.328170 0.159951 255 0 0
0.615128 0.328378 0.159917 255 0 0
0.617145 0.328634 0.159891 255 0 0
0.619168 0.328901 0.159865 255 0 0
0.621187 0.329171 0.159841 255 0 0
0.623228 0.329490 0.159836 255 0 0
0.625150 0.329887 0.159985 255 0 0
0.627201 0.329269 0.160454 255 0 0
0.629229 0.328822 0.160983 255 0 0
0.631074 0.328900 0.161159 255 0 0
0.633167 0.328612 0.161610 255 0 0
0.635028 0.328735 0.161793 255 0 0
0.637074 0.328301 0.162342 255 0 0
0.639062 0.327879 0.162872 255 0 0
0.640889 0.327930 0.163047 255 0 0
0.643053 0.327601 0.163492 255 0 0
0.644371 0.327749 0.163569 255 0 0
0.569428 0.316466 0.163032 255 0 0
0.570852 0.316422 0.162934 255 0 0
0.572880 0.316629 0.162887 255 0 0
0.574903 0.316896 0.162862 255 0 0
0.576909 0.317140 0.162830 255 0 0
0.578929 0.317407 0.162813 255 0 0
0.580755 0.317592 0.162879 255 0 0
0.583010 0.317237 0.163312 255 0 0
0.584911 0.317410 0.163390 255 0 0
0.586936 0.317673 0.163377 255 0 0
0.588888 0.318030 0.163385 255 0 0
0.590906 0.318466 0.163424 255 0 0
0.592991 0.318514 0.163316 255 0 0
0.594672 0.318735 0.163231 255 0 0
0.596930 0.320076 0.162705 255 0 0
0.599216 0.321163 0.162076 255 0 0
0.600981 0.321372 0.161985 255 0 0
0.602728 0.321616 0.161900 255 0 0
0.605356 0.322592 0.161281 255 0 0
0.606809 0.322591 0.161083 255 0 0
0.609387 0.323875 0.160571 255 0 0
0.611149 0.324078 0.160482 255 0 0
0.612925 0.324122 0.160320 255 0 0
0.615487 0.325446 0.159821 255 0 0
0.617172 0.325729 0.159762 255 0 0
0.619221 0.326004 0.159732 255 0 0
0.621255 0.326266 0.159713 255 0 0
0.623152 0.326417 0.159779 255 0 0
0.625302 0.326072 0.160230 255 0 0
0.627150 0.326201 0.160404 255 0 0
0.629253 0.325915 0.160857 255 0 0
0.631093 0.325994 0.161036 255 0 0
0.633095 0.325575 0.161571 255 0 0
0.635137 0.325148 0.162120 255 0 0
0.636992 0.325262 0.162306 255 0 0
0.639057 0.324980 0.162753 255 0 0
0.640921 0.325027 0.162925 255 0 0
0.643101 0.324490 0.163270 255 0 0
0.644359 0.324589 0.163328 255 0 0
0.571505 0.314629 0.162254 255 0 0
0.572964 0.314787 0.162224 255 0 0
0.574989 0.315106 0.162224 255 0 0
0.576981 0.315563 0.162281 255 0 0
0.579050 0.315828 0.162259 255 0 0
0.580993 0.315801 0.162236 255 0 0
0.583174 0.315361 0.162454 255 0 0
0.585001 0.315556 0.162544 255 0 0
0.587018 0.315900 0.162697 255 0 0
0.588966 0.316036 0.162756 255 0 0
0.590918 0.315479 0.162824 255 0 0
0.593275 0.316673 0.162682 255 0 0
0.594986 0.316932 0.162616 255 0 0
0.597063 0.316975 0.162483 255 0 0
0.598797 0.317146 0.162394 255 0 0
0.601401 0.318464 0.161895 255 0 0
0.602803 0.318736 0.161782 255 0 0
0.605083 0.319789 0.161159 255 0 0
0.607363 0.321079 0.160601 255 0 0
0.609142 0.321084 0.160431 255 0 0
0.610887 0.321333 0.160346 255 0 0
0.613451 0.322633 0.159843 255 0 0
0.615184 0.322623 0.159684 255 0 0
0.617266 0.322852 0.159633 255 0 0
0.619276 0.323114 0.159606 255 0 0
0.621300 0.323377 0.159588 255 0 0
0.623219 0.323554 0.159663 255 0 0
0.625338 0.323250 0.160110 255 0 0
0.627166 0.323335 0.160282 255 0 0
0.629283 0.323025 0.160735 255 0 0
0.631111 0.323106 0.160915 255 0 0
0.633151 0.322681 0.161457 255 0 0
0.635145 0.322107 0.161931 255 0 0
0.636972 0.322339 0.162168 255 0 0
0.639051 0.321906 0.162560 255 0 0
0.640966 0.322276 0.162708 255 0 0
0.643076 0.322792 0.162789 255 0 0
0.644395 0.323041 0.162807 255 0 0
0.571750 0.312385 0.161413 255 0 0
0.573139 0.312586 0.161409 255 0 0
0.575095 0.312730 0.161430 255 0 0
0.577369 0.312192 0.161561 255 0 0
0.578990 0.312366 0.161550 255 0 0
0.581467 0.313646 0.161375 255 0 0
0.583204 0.314033 0.161497 255 0 0
0.585093 0.314230 0.161569 255 0 0
0.587255 0.313774 0.161666 255 0 0
0.589186 0.314046 0.161899 255 0 0
0.591149 0.314396 0.162065 255 0 0
0.593163 0.314551 0.161880 255 0 0
0.595187 0.314813 0.161826 255 0 0
0.597191 0.315077 0.161799 255 0 0
0.599156 0.315308 0.161761 255 0 0
0.601149 0.315398 0.161663 255 0 0
0.602895 0.315832 0.161651 255 0 0
0.605497 0.316873 0.161069 255 0 0
0.606917 0.317057 0.160943 255 0 0
0.609559 0.318134 0.160336 255 0 0
0.611251 0.318403 0.160266 255 0 0
0.612992 0.318603 0.160181 255 0 0
0.615622 0.319677 0.159581 255 0 0
0.617288 0.319950 0.159518 255 0 0
0.619328 0.320225 0.159488 255 0 0
0.621348 0.320487 0.159470 255 0 0
0.623260 0.320664 0.159545 255 0 0
0.625374 0.320362 0.159993 255 0 0
0.627197 0.320450 0.160166 255 0 0
0.629310 0.320149 0.160621 255 0 0
0.631135 0.320231 0.160797 255 0 0
0.633255 0.319966 0.161263 255 0 0
0.635069 0.320201 0.161493 255 0 0
0.637207 0.319528 0.161804 255 0 0
0.638985 0.319740 0.162021 255 0 0
0.641037 0.319246 0.162363 255 0 0
0.643063 0.319405 0.162447 255 0 0
0.644423 0.319605 0.162447 255 0 0
0.571878 0.310694 0.160784 255 0 0
0.573237 0.310886 0.160773 255 0 0
0.575355 0.311180 0.160791 255 0 0
0.577360 0.311499 0.160977 255 0 0
0.579233 0.311729 0.160950 255 0 0
0.581287 0.311936 0.160704 255 0 0
0.583375 0.312155 0.160603 255 0 0
0.585466 0.312055 0.160331 255 0 0
0.587251 0.312288 0.160638 255 0 0
0.589434 0.311872 0.160770 255 0 0
0.591303 0.312024 0.160837 255 0 0
0.593305 0.312348 0.161002 255 0 0
0.595279 0.312684 0.161047 255 0 0
0.597268 0.313172 0.161121 255 0 0
0.599301 0.313474 0.161117 255 0 0
0.601197 0.313619 0.161166 255 0 0
0.603137 0.312868 0.161349 255 0 0
0.605573 0.314005 0.160963 255 0 0
0.606964 0.314281 0.160854 255 0 0
0.609599 0.315367 0.160246 255 0 0
0.611341 0.315562 0.160161 255 0 0
0.613019 0.315826 0.160091 255 0 0
0.615633 0.316929 0.159492 255 0 0
0.617337 0.317180 0.159414 255 0 0
0.619368 0.317449 0.159384 255 0 0
0.621382 0.317709 0.159366 255 0 0
0.623300 0.317868 0.159441 255 0 0
0.625437 0.317507 0.159892 255 0 0
0.627240 0.317537 0.160052 255 0 0
0.629336 0.317034 0.160433 255 0 0
0.631146 0.317267 0.160664 255 0 0
0.633289 0.316758 0.161022 255 0 0
0.635182 0.316950 0.161089 255 0 0
0.637195 0.317459 0.161176 255 0 0
0.639116 0.317658 0.161273 255 0 0
0.641152 0.317299 0.161503 255 0 0
0.643093 0.317495 0.161574 255 0 0
0.644579 0.317655 0.161530 255 0 0
0.585819 0.311112 0.159556 255 0 0
0.587540 0.310768 0.159780 255 0 0
0.589476 0.310944 0.160017 255 0 0
0.591340 0.311110 0.160108 255 0 0
0.593529 0.310801 0.160354 255 0 0
0.595283 0.310822 0.160460 255 0 0
0.597530 0.310332 0.160829 255 0 0
0.599378 0.310464 0.160887 255 0 0
0.601421 0.310764 0.160883 255 0 0
0.603366 0.311204 0.160933 255 0 0
0.605323 0.311293 0.160839 255 0 0
0.607396 0.311522 0.160788 255 0 0
0.609032 0.311724 0.160719 255 0 0
0.611697 0.312783 0.160105 255 0 0
0.613343 0.313035 0.160040 255 0 0
0.615371 0.313240 0.160007 255 0 0
0.617381 0.313489 0.159981 255 0 0
0.619373 0.313751 0.159956 255 0 0
0.621365 0.314014 0.159931 255 0 0
0.623361 0.314287 0.159906 255 0 0
0.625356 0.314613 0.159884 255 0 0
0.627370 0.314933 0.159883 255 0 0
0.629264 0.315275 0.160029 255 0 0
0.631355 0.314867 0.160412 255 0 0
0.633240 0.315193 0.160568 255 0 0
0.635253 0.315442 0.160535 255 0 0
0.637337 0.315312 0.160183 255 0 0
0.639246 0.315514 0.160136 255 0 0
0.641233 0.315869 0.160294 255 0 0
0.643220 0.316133 0.160304 255 0 0
0.645207 0.316321 0.160206 255 0 0
0.646637 0.316239 0.159914 255 0 0
0.637799 0.314484 0.159388 255 0 0
0.639281 0.314643 0.159335 255 0 0
0.641325 0.314904 0.159313 255 0 0
0.643327 0.315166 0.159289 255 0 0
0.645407 0.315450 0.159273 255 0 0
0.646757 0.315646 0.159274 255 0 0
