ply
format ascii 1.0
element vertex 551
property float x
property float y
property float z
property uchar red
property uchar green
property uchar blue
end_header
0.584675 0.276229 0.169220 255 0 0
0.585519 0.277549 0.169312 255 0 0
0.586818 0.278826 0.169736 255 0 0
0.584334 0.265860 0.170067 255 0 0
0.585069 0.267292 0.170079 255 0 0
0.586134 0.269259 0.170089 255 0 0
0.587171 0.271158 0.170099 255 0 0
0.588218 0.273067 0.170113 255 0 0
0.589283 0.274825 0.170198 255 0 0
0.590895 0.276542 0.170673 255 0 0
0.591683 0.277800 0.170749 255 0 0
0.585421 0.259947 0.170335 255 0 0
0.586042 0.261091 0.170301 255 0 0
0.586787 0.263848 0.169881 255 0 0
0.588229 0.265257 0.170278 255 0 0
0.589274 0.267041 0.170371 255 0 0
0.590328 0.268958 0.170391 255 0 0
0.591391 0.270698 0.170476 255 0 0
0.593022 0.272331 0.170943 255 0 0
0.594063 0.274071 0.171028 255 0 0
0.595101 0.276064 0.171048 255 0 0
0.595857 0.277453 0.171056 255 0 0
0.584919 0.249495 0.171159 255 0 0
0.585388 0.251818 0.170665 255 0 0
0.586237 0.253511 0.170623 255 0 0
0.587290 0.255457 0.170626 255 0 0
0.588128 0.257106 0.170595 255 0 0
0.588824 0.259929 0.170072 255 0 0
0.589722 0.261568 0.170041 255 0 0
0.590769 0.263360 0.170125 255 0 0
0.592388 0.265003 0.170596 255 0 0
0.593441 0.266731 0.170681 255 0 0
0.594475 0.268634 0.170695 255 0 0
0.595479 0.270560 0.170716 255 0 0
0.596530 0.272288 0.170802 255 0 0
0.598237 0.273943 0.171266 255 0 0
0.599021 0.275176 0.171340 255 0 0
0.582239 0.241495 0.169620 255 0 0
0.583017 0.242921 0.169631 255 0 0
0.583898 0.244443 0.169677 255 0 0
0.586550 0.246106 0.170864 255 0 0
0.587384 0.247418 0.170974 255 0 0
0.589199 0.249013 0.171378 255 0 0
0.590097 0.250822 0.171534 255 0 0
0.591137 0.252768 0.171557 255 0 0
0.591973 0.254402 0.171526 255 0 0
0.592667 0.257228 0.171004 255 0 0
0.593518 0.258869 0.170971 255 0 0
0.594599 0.260748 0.170971 255 0 0
0.595639 0.262631 0.170984 255 0 0
0.596701 0.264350 0.171064 255 0 0
0.598470 0.265927 0.171436 255 0 0
0.599336 0.267422 0.171474 255 0 0
0.599901 0.270356 0.171056 255 0 0
0.600732 0.272039 0.171019 255 0 0
0.601952 0.273897 0.170939 255 0 0
0.602801 0.275235 0.170911 255 0 0
0.583027 0.235954 0.169161 0 0 0
0.583750 0.237156 0.169237 255 0 0
0.585430 0.238921 0.169714 255 0 0
0.586456 0.240492 0.169883 255 0 0
0.588095 0.242188 0.170357 255 0 0
0.589038 0.243954 0.170488 255 0 0
0.589895 0.245983 0.170610 255 0 0
0.590785 0.247822 0.170774 255 0 0
0.592675 0.249268 0.171097 255 0 0
0.593578 0.251069 0.171246 255 0 0
0.594603 0.252971 0.171270 255 0 0
0.595717 0.254856 0.171255 255 0 0
0.596738 0.256408 0.171137 255 0 0
0.597224 0.259302 0.170711 255 0 0
0.598051 0.260941 0.170684 255 0 0
0.599072 0.262873 0.170701 255 0 0
0.599980 0.264867 0.170785 255 0 0
0.601128 0.266591 0.170713 255 0 0
0.602330 0.268370 0.170618 255 0 0
0.603211 0.270026 0.170580 255 0 0
0.603552 0.273065 0.170265 255 0 0
0.604479 0.274709 0.170209 255 0 0
0.605649 0.275953 0.170026 255 0 0
0.584438 0.235084 0.168487 255 0 0
0.585170 0.236324 0.168578 255 0 0
0.586866 0.238065 0.169050 255 0 0
0.587875 0.239659 0.169229 255 0 0
0.589538 0.241336 0.169697 255 0 0
0.590557 0.242882 0.169842 255 0 0
0.592378 0.244459 0.170226 255 0 0
0.593424 0.246219 0.170326 255 0 0
0.594317 0.248034 0.170487 255 0 0
0.596049 0.249578 0.170883 255 0 0
0.597149 0.251342 0.170949 255 0 0
0.598163 0.252902 0.170842 255 0 0
0.598532 0.255822 0.170487 255 0 0
0.599713 0.257296 0.170285 255 0 0
0.600792 0.259154 0.170258 255 0 0
0.601807 0.261063 0.170272 255 0 0
0.602653 0.262699 0.170247 255 0 0
0.603045 0.265716 0.169905 255 0 0
0.604038 0.267276 0.169801 255 0 0
0.605084 0.269100 0.169780 255 0 0
0.606271 0.270915 0.169703 255 0 0
0.607153 0.272565 0.169663 255 0 0
0.607584 0.275601 0.169305 255 0 0
0.608542 0.276595 0.169108 255 0 0
0.587131 0.233376 0.168072 255 0 0
0.587870 0.234584 0.168148 255 0 0
0.589606 0.236334 0.168638 255 0 0
0.590630 0.237868 0.168793 255 0 0
0.592275 0.239559 0.169281 255 0 0
0.593299 0.241138 0.169447 255 0 0
0.594913 0.242811 0.169926 255 0 0
0.595949 0.244535 0.170021 255 0 0
0.597010 0.246262 0.170111 255 0 0
0.598812 0.247841 0.170483 255 0 0
0.599660 0.249313 0.170516 255 0 0
0.600040 0.252305 0.170174 255 0 0
0.601025 0.253554 0.169953 255 0 0
0.601397 0.256540 0.169603 255 0 0
0.602276 0.258195 0.169562 255 0 0
0.603476 0.259997 0.169477 255 0 0
0.604530 0.261812 0.169451 255 0 0
0.605533 0.263357 0.169342 255 0 0
0.605906 0.266383 0.169006 255 0 0
0.606788 0.268033 0.168965 255 0 0
0.607976 0.269844 0.168887 255 0 0
0.609021 0.271666 0.168866 255 0 0
0.610012 0.273217 0.168762 255 0 0
0.610479 0.276268 0.168387 255 0 0
0.611424 0.277261 0.168193 255 0 0
0.592402 0.234982 0.168428 255 0 0
0.593123 0.236189 0.168508 255 0 0
0.594788 0.237925 0.168994 255 0 0
0.595831 0.239496 0.169156 255 0 0
0.597592 0.241054 0.169561 255 0 0
0.598465 0.242840 0.169718 255 0 0
0.599464 0.244780 0.169758 255 0 0
0.600319 0.246748 0.169855 255 0 0
0.601340 0.248582 0.169850 255 0 0
0.602514 0.250047 0.169652 255 0 0
0.602888 0.252965 0.169290 255 0 0
0.603902 0.254534 0.169173 255 0 0
0.604807 0.256217 0.169114 255 0 0
0.605339 0.259088 0.168693 255 0 0
0.606180 0.260723 0.168665 255 0 0
0.607240 0.262592 0.168647 255 0 0
0.608615 0.264300 0.168471 255 0 0
0.609501 0.265893 0.168416 255 0 0
0.609833 0.268923 0.168099 255 0 0
0.610707 0.270576 0.168060 255 0 0
0.611922 0.272366 0.167959 255 0 0
0.612934 0.273881 0.167818 255 0 0
0.613563 0.276829 0.167369 255 0 0
0.614302 0.277827 0.167260 255 0 0
0.594863 0.233409 0.168155 255 0 0
0.595632 0.234570 0.168229 255 0 0
0.597295 0.236273 0.168705 255 0 0
0.598307 0.238036 0.168815 255 0 0
0.599186 0.239840 0.168980 255 0 0
0.600855 0.241414 0.169384 255 0 0
0.601896 0.243123 0.169471 255 0 0
0.602996 0.245029 0.169464 255 0 0
0.604066 0.246537 0.169332 255 0 0
0.604422 0.249431 0.168979 255 0 0
0.605598 0.250893 0.168775 255 0 0
0.606681 0.252765 0.168743 255 0 0
0.607522 0.254392 0.168714 255 0 0
0.608020 0.257276 0.168310 255 0 0
0.608883 0.258942 0.168267 255 0 0
0.609743 0.260602 0.168224 255 0 0
0.610249 0.263512 0.167810 255 0 0
0.611095 0.265092 0.167768 255 0 0
0.612354 0.266924 0.167662 255 0 0
0.613395 0.268469 0.167533 255 0 0
0.613754 0.271492 0.167193 255 0 0
0.614414 0.272887 0.167131 255 0 0
0.615203 0.275763 0.166599 255 0 0
0.615788 0.276931 0.166559 255 0 0
0.598390 0.233483 0.168009 255 0 0
0.599678 0.234688 0.168432 255 0 0
0.600765 0.236439 0.168540 255 0 0
0.601609 0.237896 0.168598 255 0 0
0.604463 0.239308 0.169681 255 0 0
0.605173 0.240904 0.169808 255 0 0
0.605959 0.242381 0.169810 255 0 0
0.605829 0.246165 0.168708 255 0 0
0.606577 0.247261 0.168580 255 0 0
0.607166 0.250207 0.168138 255 0 0
0.608007 0.251838 0.168109 255 0 0
0.609035 0.253673 0.168099 255 0 0
0.610224 0.255434 0.168011 255 0 0
0.611291 0.257332 0.167999 255 0 0
0.612154 0.258957 0.167954 255 0 0
0.612936 0.261674 0.167428 255 0 0
0.613801 0.263331 0.167381 255 0 0
0.614657 0.264991 0.167338 255 0 0
0.615183 0.267854 0.166905 255 0 0
0.616245 0.269420 0.166769 255 0 0
0.617303 0.270987 0.166633 255 0 0
0.617851 0.273893 0.166193 255 0 0
0.618538 0.275289 0.166110 255 0 0
0.619367 0.278141 0.165571 255 0 0
0.619963 0.279260 0.165533 255 0 0
0.603198 0.232892 0.168900 255 0 0
0.603963 0.234166 0.168902 255 0 0
0.605008 0.236118 0.168929 255 0 0
0.605819 0.237952 0.169102 255 0 0
0.607533 0.239497 0.169492 255 0 0
0.608407 0.240972 0.169523 255 0 0
0.609195 0.243679 0.169001 255 0 0
0.609893 0.245087 0.168904 255 0 0
0.610631 0.247857 0.168372 255 0 0
0.611455 0.249463 0.168337 255 0 0
0.612477 0.251342 0.168342 255 0 0
0.613487 0.253192 0.168351 255 0 0
0.614526 0.255094 0.168358 255 0 0
0.615299 0.256488 0.168342 255 0 0
0.615381 0.260227 0.167141 255 0 0
0.616168 0.261658 0.167122 255 0 0
0.617023 0.263310 0.167087 255 0 0
0.617779 0.266128 0.166549 255 0 0
0.618474 0.267528 0.166461 255 0 0
0.619078 0.270380 0.166014 255 0 0
0.620093 0.271933 0.165895 255 0 0
0.620965 0.273574 0.165846 255 0 0
0.621670 0.276442 0.165315 255 0 0
0.622610 0.278082 0.165268 255 0 0
0.623395 0.279398 0.165265 255 0 0
0.606606 0.233151 0.168665 255 0 0
0.607400 0.234435 0.168671 255 0 0
0.608478 0.236174 0.168757 255 0 0
0.610280 0.237745 0.169127 255 0 0
0.611120 0.239178 0.169155 255 0 0
0.611667 0.242080 0.168728 255 0 0
0.612494 0.243382 0.168568 255 0 0
0.613008 0.246218 0.168133 255 0 0
0.613846 0.247849 0.168091 255 0 0
0.614870 0.249716 0.168095 255 0 0
0.615878 0.251561 0.168104 255 0 0
0.616897 0.253438 0.168110 255 0 0
0.617706 0.255027 0.168078 255 0 0
0.618465 0.257800 0.167545 255 0 0
0.619383 0.259416 0.167491 255 0 0
0.620213 0.261015 0.167453 255 0 0
0.620958 0.263931 0.166911 255 0 0
0.621559 0.265015 0.166865 255 0 0
0.621707 0.268815 0.165639 255 0 0
0.622482 0.270215 0.165624 255 0 0
0.623543 0.272145 0.165626 255 0 0
0.624395 0.273696 0.165591 255 0 0
0.625166 0.276655 0.165045 255 0 0
0.625698 0.277726 0.165018 255 0 0
0.610094 0.233367 0.168428 255 0 0
0.610857 0.234671 0.168441 255 0 0
0.611738 0.236680 0.168541 255 0 0
0.612706 0.238473 0.168551 255 0 0
0.613720 0.240004 0.168421 255 0 0
0.614268 0.242813 0.167972 255 0 0
0.615320 0.244345 0.167832 255 0 0
0.616510 0.246105 0.167748 255 0 0
0.617355 0.248007 0.167831 255 0 0
0.618345 0.249890 0.167854 255 0 0
0.619348 0.251730 0.167864 255 0 0
0.620371 0.253592 0.167868 255 0 0
0.621221 0.255136 0.167832 255 0 0
0.621873 0.258027 0.167300 255 0 0
0.622720 0.259632 0.167261 255 0 0
0.623636 0.261171 0.167216 255 0 0
0.624339 0.264088 0.166672 255 0 0
0.625050 0.265332 0.166596 255 0 0
0.625804 0.268233 0.166046 255 0 0
0.626610 0.269808 0.166014 255 0 0
0.627651 0.271692 0.166019 255 0 0
0.628716 0.273498 0.166022 255 0 0
0.629730 0.275338 0.166031 255 0 0
0.630776 0.277253 0.166040 255 0 0
0.631478 0.278561 0.166048 255 0 0
0.613645 0.233526 0.168190 255 0 0
0.614363 0.234822 0.168196 255 0 0
0.615409 0.236749 0.168201 255 0 0
0.616244 0.238360 0.168155 255 0 0
0.616954 0.241107 0.167631 255 0 0
0.617594 0.242487 0.167549 255 0 0
0.618117 0.245250 0.167224 255 0 0
0.619720 0.246535 0.167522 255 0 0
0.620783 0.248211 0.167608 255 0 0
0.621799 0.250057 0.167623 255 0 0
0.622801 0.251894 0.167632 255 0 0
0.623807 0.253721 0.167640 255 0 0
0.624874 0.255553 0.167640 255 0 0
0.625694 0.257124 0.167607 255 0 0
0.626371 0.260042 0.167065 255 0 0
0.627066 0.261280 0.166988 255 0 0
0.627775 0.264200 0.166442 255 0 0
0.628677 0.265703 0.166400 255 0 0
0.629731 0.267603 0.166399 255 0 0
0.630536 0.269167 0.166369 255 0 0
0.631203 0.272097 0.165831 255 0 0
0.632055 0.273632 0.165796 255 0 0
0.633113 0.275564 0.165801 255 0 0
0.633836 0.276881 0.165808 255 0 0
0.616042 0.231965 0.167966 255 0 0
0.616753 0.233242 0.167972 255 0 0
0.617856 0.235128 0.167971 255 0 0
0.618699 0.236719 0.167923 255 0 0
0.619396 0.239436 0.167405 255 0 0
0.620239 0.241030 0.167357 255 0 0
0.621298 0.242858 0.167356 255 0 0
0.622270 0.244728 0.167369 255 0 0
0.623245 0.246557 0.167380 255 0 0
0.624244 0.248389 0.167390 255 0 0
0.625244 0.250220 0.167399 255 0 0
0.626243 0.252052 0.167408 255 0 0
0.627241 0.253885 0.167417 255 0 0
0.628260 0.255733 0.167420 255 0 0
0.629144 0.257286 0.167370 255 0 0
0.629859 0.260141 0.166833 255 0 0
0.630507 0.261403 0.166760 255 0 0
0.631200 0.264348 0.166215 255 0 0
0.632048 0.265880 0.166179 255 0 0
0.633089 0.267761 0.166178 255 0 0
0.633938 0.269285 0.166143 255 0 0
0.634632 0.272215 0.165601 255 0 0
0.635483 0.273744 0.165566 255 0 0
0.636544 0.275661 0.165570 255 0 0
0.637317 0.276929 0.165571 255 0 0
0.620019 0.231474 0.168296 255 0 0
0.620500 0.233651 0.167805 255 0 0
0.621137 0.235053 0.167705 255 0 0
0.621848 0.237794 0.167180 255 0 0
0.622682 0.239394 0.167132 255 0 0
0.623689 0.241247 0.167136 255 0 0
0.624688 0.243072 0.167145 255 0 0
0.625686 0.244898 0.167154 255 0 0
0.626684 0.246725 0.167164 255 0 0
0.627681 0.248551 0.167173 255 0 0
0.628678 0.250378 0.167182 255 0 0
0.629675 0.252204 0.167191 255 0 0
0.630686 0.254058 0.167195 255 0 0
0.631513 0.255644 0.167150 255 0 0
0.632231 0.258407 0.166626 255 0 0
0.633082 0.260013 0.166575 255 0 0
0.633976 0.261585 0.166521 255 0 0
0.634681 0.264429 0.165988 255 0 0
0.635478 0.265992 0.165956 255 0 0
0.636508 0.267881 0.165957 255 0 0
0.637352 0.269396 0.165922 255 0 0
0.638047 0.272330 0.165378 255 0 0
0.638893 0.273853 0.165343 255 0 0
0.639952 0.275765 0.165347 255 0 0
0.640726 0.277021 0.165348 255 0 0
0.622968 0.232370 0.167524 255 0 0
0.623764 0.233327 0.167391 255 0 0
0.624300 0.236145 0.166959 255 0 0
0.625123 0.237752 0.166914 255 0 0
0.626124 0.239602 0.166918 255 0 0
0.627118 0.241425 0.166927 255 0 0
0.628113 0.243247 0.166936 255 0 0
0.629107 0.245069 0.166946 255 0 0
0.630102 0.246891 0.166955 255 0 0
0.631097 0.248713 0.166964 255 0 0
0.632092 0.250535 0.166973 255 0 0
0.633100 0.252383 0.166977 255 0 0
0.633929 0.253962 0.166931 255 0 0
0.634653 0.256717 0.166407 255 0 0
0.635496 0.258327 0.166356 255 0 0
0.636336 0.259933 0.166306 255 0 0
0.637062 0.262704 0.165780 255 0 0
0.637892 0.264285 0.165735 255 0 0
0.638902 0.266141 0.165739 255 0 0
0.639916 0.267988 0.165743 255 0 0
0.640795 0.269524 0.165693 255 0 0
0.641509 0.272389 0.165157 255 0 0
0.642273 0.273943 0.165130 255 0 0
0.643302 0.275902 0.165138 255 0 0
0.644114 0.277121 0.165134 255 0 0
0.625581 0.233027 0.166802 255 0 0
0.626497 0.234242 0.166710 255 0 0
0.627617 0.236158 0.166680 255 0 0
0.628807 0.237864 0.166589 255 0 0
0.629808 0.239624 0.166579 255 0 0
0.630794 0.241448 0.166591 255 0 0
0.631768 0.243277 0.166607 255 0 0
0.632757 0.245099 0.166618 255 0 0
0.633749 0.246917 0.166627 255 0 0
0.634743 0.248735 0.166636 255 0 0
0.635752 0.250582 0.166640 255 0 0
0.636580 0.252134 0.166603 255 0 0
0.637073 0.255026 0.166191 255 0 0
0.637906 0.256643 0.166144 255 0 0
0.638704 0.258215 0.166107 255 0 0
0.639385 0.261056 0.165575 255 0 0
0.640212 0.262627 0.165529 255 0 0
0.641243 0.264480 0.165532 255 0 0
0.642306 0.266296 0.165531 255 0 0
0.643095 0.267831 0.165500 255 0 0
0.643824 0.270703 0.164970 255 0 0
0.644763 0.272111 0.165017 255 0 0
0.646074 0.273368 0.165383 255 0 0
0.646849 0.276234 0.164973 255 0 0
0.647418 0.277208 0.164940 255 0 0
0.628220 0.231411 0.166484 255 0 0
0.628969 0.232713 0.166469 255 0 0
0.630060 0.234221 0.166335 255 0 0
0.630323 0.237144 0.166025 255 0 0
0.631124 0.238726 0.165996 255 0 0
0.632171 0.240582 0.165983 255 0 0
0.633360 0.242287 0.165892 255 0 0
0.634365 0.244053 0.165882 255 0 0
0.635357 0.245873 0.165892 255 0 0
0.636349 0.247691 0.165902 255 0 0
0.637276 0.249500 0.165940 255 0 0
0.638097 0.251384 0.166025 255 0 0
0.639263 0.253127 0.165949 255 0 0
0.640301 0.254960 0.165939 255 0 0
0.641301 0.256759 0.165946 255 0 0
0.642349 0.258533 0.165950 255 0 0
0.643372 0.260388 0.165953 255 0 0
0.644158 0.261913 0.165921 255 0 0
0.644829 0.264840 0.165377 255 0 0
0.645682 0.266361 0.165336 255 0 0
0.646535 0.267890 0.165295 255 0 0
0.647293 0.270695 0.164886 255 0 0
0.648586 0.271925 0.165255 255 0 0
0.649711 0.273607 0.165355 255 0 0
0.650538 0.275190 0.165319 255 0 0
0.651002 0.277542 0.164802 255 0 0
0.631833 0.233875 0.165760 255 0 0
0.632794 0.235097 0.165653 255 0 0
0.634072 0.236906 0.165537 255 0 0
0.634878 0.238414 0.165491 255 0 0
0.635151 0.241427 0.165186 255 0 0
0.635951 0.242996 0.165157 255 0 0
0.636949 0.244837 0.165163 255 0 0
0.637952 0.246658 0.165178 255 0 0
0.638989 0.248298 0.165250 255 0 0
0.640915 0.249682 0.165524 255 0 0
0.641963 0.251309 0.165589 255 0 0
0.642967 0.253126 0.165604 255 0 0
0.643887 0.254910 0.165641 255 0 0
0.644748 0.256873 0.165725 255 0 0
0.645851 0.258586 0.165679 255 0 0
0.646742 0.260505 0.165736 255 0 0
0.647773 0.261952 0.165617 255 0 0
0.648266 0.264882 0.165177 255 0 0
0.649095 0.266444 0.165129 255 0 0
0.650277 0.268120 0.165057 255 0 0
0.651081 0.270045 0.165146 255 0 0
0.652023 0.271908 0.165172 255 0 0
0.653059 0.273772 0.165181 255 0 0
0.653812 0.274993 0.165181 255 0 0
0.634490 0.232286 0.165449 255 0 0
0.635046 0.233269 0.165404 255 0 0
0.635555 0.236177 0.164991 255 0 0
0.636418 0.237697 0.164920 255 0 0
0.637815 0.239329 0.164726 255 0 0
0.638856 0.241093 0.164698 255 0 0
0.639833 0.242915 0.164712 255 0 0
0.640834 0.244713 0.164716 255 0 0
0.641808 0.246556 0.164739 255 0 0
0.642549 0.248474 0.164871 255 0 0
0.643289 0.250394 0.165004 255 0 0
0.644273 0.252248 0.165034 255 0 0
0.645338 0.253904 0.165109 255 0 0
0.647021 0.255040 0.165311 255 0 0
0.647526 0.257714 0.165186 255 0 0
0.648958 0.258617 0.165325 255 0 0
0.649384 0.261439 0.165094 255 0 0
0.650444 0.262942 0.164945 255 0 0
0.651494 0.264443 0.164799 255 0 0
0.651845 0.267292 0.164583 255 0 0
0.653366 0.268482 0.164848 255 0 0
0.654583 0.270050 0.164881 255 0 0
0.655372 0.271930 0.164975 255 0 0
0.656324 0.273900 0.165004 255 0 0
0.657049 0.275104 0.165007 255 0 0
0.637663 0.232259 0.165187 255 0 0
0.638215 0.234352 0.164694 255 0 0
0.638872 0.235746 0.164581 255 0 0
0.639356 0.238635 0.164161 255 0 0
0.640205 0.240212 0.164111 255 0 0
0.641335 0.241918 0.164042 255 0 0
0.642151 0.243798 0.164131 255 0 0
0.643135 0.245649 0.164159 255 0 0
0.644187 0.247268 0.164225 255 0 0
0.646135 0.248625 0.164488 255 0 0
0.647164 0.250254 0.164559 255 0 0
0.648145 0.252105 0.164588 255 0 0
0.648962 0.253983 0.164674 255 0 0
0.650062 0.255700 0.164626 255 0 0
0.650935 0.257601 0.164694 255 0 0
0.651997 0.259278 0.164658 255 0 0
0.652696 0.260972 0.164685 255 0 0
0.653193 0.263888 0.164272 255 0 0
0.654273 0.265226 0.164246 255 0 0
0.655698 0.266393 0.164518 255 0 0
0.656181 0.269270 0.164443 255 0 0
0.657215 0.269988 0.164666 255 0 0
0.640607 0.233095 0.164463 255 0 0
0.641241 0.234090 0.164399 255 0 0
0.642002 0.236871 0.163860 255 0 0
0.642617 0.238189 0.163773 255 0 0
0.643160 0.240950 0.163443 255 0 0
0.644708 0.242184 0.163738 255 0 0
0.645758 0.243822 0.163832 255 0 0
0.646740 0.245675 0.163862 255 0 0
0.647542 0.247606 0.163964 255 0 0
0.648454 0.249385 0.164003 255 0 0
0.649442 0.251186 0.164013 255 0 0
0.650443 0.252978 0.164016 255 0 0
0.651422 0.254786 0.164028 255 0 0
0.652432 0.256588 0.164039 255 0 0
0.653459 0.258274 0.164134 255 0 0
0.654782 0.259470 0.164411 255 0 0
0.655655 0.262120 0.163999 255 0 0
0.656489 0.263792 0.163968 255 0 0
0.657029 0.265188 0.164051 255 0 0
0.643837 0.233079 0.164196 255 0 0
0.644372 0.235152 0.163711 255 0 0
0.645202 0.236751 0.163645 255 0 0
0.646250 0.238542 0.163643 255 0 0
0.647205 0.240383 0.163655 255 0 0
0.648157 0.242176 0.163667 255 0 0
0.649138 0.243973 0.163676 255 0 0
0.650125 0.245766 0.163685 255 0 0
0.651109 0.247562 0.163694 255 0 0
0.652096 0.249360 0.163702 255 0 0
0.653034 0.251152 0.163713 255 0 0
0.653953 0.253006 0.163727 255 0 0
0.654962 0.254876 0.163738 255 0 0
0.655625 0.256154 0.163753 255 0 0
0.646837 0.233827 0.163486 255 0 0
0.647559 0.235087 0.163479 255 0 0
0.648539 0.236941 0.163489 255 0 0
0.649463 0.238778 0.163503 255 0 0
0.650436 0.240579 0.163512 255 0 0
0.651414 0.242370 0.163521 255 0 0
0.652393 0.244163 0.163530 255 0 0
0.653367 0.245956 0.163538 255 0 0
0.654378 0.247821 0.163547 255 0 0
0.655039 0.249054 0.163553 255 0 0
0.649187 0.232293 0.163322 255 0 0
0.649852 0.233503 0.163336 255 0 0
0.650899 0.235184 0.163436 255 0 0
0.652451 0.236755 0.163908 255 0 0
0.653447 0.238376 0.164009 255 0 0
0.654437 0.240173 0.164026 255 0 0
0.655450 0.242029 0.164035 255 0 0
0.656105 0.243231 0.164041 255 0 0
0.653207 0.231919 0.163861 255 0 0
0.653931 0.233003 0.163973 255 0 0
0.655052 0.234136 0.164377 255 0 0
