ply
format ascii 1.0
element vertex 527
property float x
property float y
property float z
property uchar red
property uchar green
property uchar blue
end_header
0.569577 0.357485 0.158986 255 0 0
0.570881 0.357633 0.158901 255 0 0
0.573370 0.358648 0.158278 255 0 0
0.575752 0.359565 0.157665 255 0 0
0.577431 0.359847 0.157516 255 0 0
0.580087 0.360804 0.156949 255 0 0
0.582054 0.361043 0.156833 255 0 0
0.584027 0.361113 0.156641 255 0 0
0.586633 0.362258 0.156176 255 0 0
0.588571 0.362531 0.156081 255 0 0
0.590537 0.362777 0.155973 255 0 0
0.593226 0.363742 0.155401 255 0 0
0.594917 0.364028 0.155254 255 0 0
0.597114 0.364929 0.154701 255 0 0
0.600018 0.366973 0.153391 255 0 0
0.601441 0.367203 0.153289 255 0 0
0.603654 0.368064 0.152751 255 0 0
0.569555 0.353680 0.159122 255 0 0
0.571603 0.354507 0.158617 255 0 0
0.573024 0.354696 0.158500 255 0 0
0.576105 0.356760 0.157266 255 0 0
0.577508 0.356954 0.157160 255 0 0
0.580219 0.357926 0.156585 255 0 0
0.581882 0.358205 0.156447 255 0 0
0.584504 0.359359 0.155973 255 0 0
0.586447 0.359423 0.155786 255 0 0
0.588729 0.359616 0.155703 255 0 0
0.590629 0.359799 0.155602 255 0 0
0.593314 0.360819 0.155037 255 0 0
0.594965 0.361034 0.154893 255 0 0
0.597644 0.362054 0.154326 255 0 0
0.599624 0.362221 0.154208 255 0 0
0.601571 0.362414 0.154098 255 0 0
0.604013 0.363450 0.153487 255 0 0
0.606457 0.364439 0.152872 255 0 0
0.608445 0.364692 0.152769 255 0 0
0.610135 0.364826 0.152701 255 0 0
0.613301 0.366784 0.151447 255 0 0
0.614960 0.366965 0.151391 255 0 0
0.617223 0.367192 0.151333 255 0 0
0.619423 0.367412 0.151279 255 0 0
0.621622 0.367632 0.151224 255 0 0
0.623821 0.367852 0.151170 255 0 0
0.626020 0.368074 0.151116 255 0 0
0.628274 0.368299 0.151064 255 0 0
0.630024 0.368415 0.151066 255 0 0
0.632926 0.367160 0.152109 255 0 0
0.634675 0.367326 0.152116 255 0 0
0.636924 0.367555 0.152066 255 0 0
0.639135 0.367773 0.152017 255 0 0
0.641286 0.367850 0.152059 255 0 0
0.643026 0.367431 0.152398 255 0 0
0.572029 0.351586 0.158184 255 0 0
0.573641 0.351710 0.158127 255 0 0
0.575605 0.351903 0.158021 255 0 0
0.578291 0.352896 0.157448 255 0 0
0.579937 0.353112 0.157297 255 0 0
0.582588 0.354058 0.156727 255 0 0
0.584479 0.354309 0.156632 255 0 0
0.586744 0.354548 0.156571 255 0 0
0.588376 0.354728 0.156513 255 0 0
0.591497 0.356762 0.155264 255 0 0
0.592850 0.356921 0.155167 255 0 0
0.595606 0.357929 0.154587 255 0 0
0.597533 0.358131 0.154483 255 0 0
0.599456 0.358373 0.154385 255 0 0
0.602197 0.359382 0.153803 255 0 0
0.603803 0.359541 0.153666 255 0 0
0.606581 0.360554 0.153075 255 0 0
0.608187 0.360769 0.152945 255 0 0
0.610956 0.361869 0.152365 255 0 0
0.612562 0.362074 0.152235 255 0 0
0.615340 0.363038 0.151641 255 0 0
0.617233 0.363284 0.151551 255 0 0
0.619454 0.363511 0.151492 255 0 0
0.621646 0.363730 0.151438 255 0 0
0.623853 0.363943 0.151389 255 0 0
0.625928 0.364046 0.151413 255 0 0
0.628284 0.363632 0.151799 255 0 0
0.630374 0.363789 0.151835 255 0 0
0.632474 0.363954 0.151872 255 0 0
0.634816 0.363541 0.152260 255 0 0
0.636822 0.363525 0.152370 255 0 0
0.638846 0.363154 0.152692 255 0 0
0.641545 0.364061 0.152216 255 0 0
0.643499 0.364355 0.152133 255 0 0
0.645093 0.364477 0.152086 255 0 0
0.572247 0.348474 0.157794 255 0 0
0.573780 0.348634 0.157756 255 0 0
0.576039 0.348852 0.157694 255 0 0
0.577970 0.349038 0.157574 255 0 0
0.580353 0.350073 0.156967 255 0 0
0.582679 0.351078 0.156378 255 0 0
0.584645 0.351302 0.156250 255 0 0
0.586866 0.351321 0.156094 255 0 0
0.588972 0.351532 0.156042 255 0 0
0.590893 0.351891 0.156020 255 0 0
0.593580 0.352867 0.155465 255 0 0
0.595482 0.353117 0.155368 255 0 0
0.597426 0.353357 0.155259 255 0 0
0.600153 0.354328 0.154683 255 0 0
0.601524 0.354517 0.154582 255 0 0
0.604679 0.356585 0.153333 255 0 0
0.606022 0.356740 0.153238 255 0 0
0.608810 0.357758 0.152652 255 0 0
0.610722 0.357946 0.152549 255 0 0
0.612688 0.358167 0.152439 255 0 0
0.615387 0.359056 0.151856 255 0 0
0.617280 0.359299 0.151764 255 0 0
0.619494 0.359525 0.151706 255 0 0
0.621678 0.359743 0.151652 255 0 0
0.623863 0.359961 0.151598 255 0 0
0.626048 0.360204 0.151553 255 0 0
0.628123 0.360422 0.151592 255 0 0
0.630484 0.360012 0.151985 255 0 0
0.632441 0.360007 0.152090 255 0 0
0.634780 0.359643 0.152483 255 0 0
0.636853 0.359759 0.152512 255 0 0
0.639045 0.360017 0.152469 255 0 0
0.641210 0.360193 0.152411 255 0 0
0.643403 0.360400 0.152355 255 0 0
0.645656 0.360623 0.152299 255 0 0
0.647216 0.360772 0.152261 255 0 0
0.572414 0.345505 0.157440 255 0 0
0.573934 0.345660 0.157402 255 0 0
0.576199 0.345891 0.157342 255 0 0
0.578089 0.346147 0.157240 255 0 0
0.580471 0.347101 0.156623 255 0 0
0.582884 0.347973 0.155978 255 0 0
0.584567 0.348066 0.155748 255 0 0
0.587166 0.349472 0.155394 255 0 0
0.588944 0.349604 0.155364 255 0 0
0.591178 0.348822 0.155479 255 0 0
0.593637 0.349878 0.155116 255 0 0
0.595593 0.350137 0.155009 255 0 0
0.597523 0.350382 0.154901 255 0 0
0.600184 0.351355 0.154335 255 0 0
0.601835 0.351602 0.154186 255 0 0
0.604505 0.352496 0.153608 255 0 0
0.606450 0.352731 0.153497 255 0 0
0.608382 0.352960 0.153389 255 0 0
0.611138 0.353939 0.152810 255 0 0
0.612468 0.354144 0.152722 255 0 0
0.615630 0.356228 0.151476 255 0 0
0.617298 0.356389 0.151409 255 0 0
0.619536 0.356606 0.151351 255 0 0
0.621716 0.356823 0.151297 255 0 0
0.623949 0.357039 0.151247 255 0 0
0.625669 0.357155 0.151247 255 0 0
0.628580 0.355778 0.152280 255 0 0
0.630332 0.355915 0.152292 255 0 0
0.632436 0.356030 0.152326 255 0 0
0.634748 0.355655 0.152708 255 0 0
0.636828 0.355774 0.152741 255 0 0
0.639011 0.355986 0.152693 255 0 0
0.641182 0.356203 0.152640 255 0 0
0.643353 0.356420 0.152586 255 0 0
0.645525 0.356637 0.152532 255 0 0
0.647774 0.356861 0.152477 255 0 0
0.649312 0.357016 0.152440 255 0 0
0.572632 0.341483 0.157673 255 0 0
0.574139 0.341635 0.157636 255 0 0
0.576430 0.341833 0.157553 255 0 0
0.578396 0.341910 0.157328 255 0 0
0.580478 0.342730 0.156770 255 0 0
0.582960 0.345186 0.155560 255 0 0
0.585048 0.346233 0.155092 255 0 0
0.586993 0.346304 0.154895 255 0 0
0.589247 0.346533 0.154832 255 0 0
0.591367 0.346907 0.154855 255 0 0
0.593495 0.346963 0.154728 255 0 0
0.595772 0.347119 0.154632 255 0 0
0.597683 0.347093 0.154433 255 0 0
0.600286 0.348264 0.153966 255 0 0
0.601900 0.348539 0.153833 255 0 0
0.604603 0.349575 0.153261 255 0 0
0.606538 0.349756 0.153145 255 0 0
0.608421 0.349995 0.153049 255 0 0
0.611119 0.351027 0.152482 255 0 0
0.613016 0.351187 0.152370 255 0 0
0.615239 0.351335 0.152297 255 0 0
0.617112 0.351566 0.152206 255 0 0
0.619855 0.352603 0.151626 255 0 0
0.621714 0.352848 0.151536 255 0 0
0.623928 0.353069 0.151484 255 0 0
0.626008 0.353188 0.151518 255 0 0
0.628336 0.352823 0.151905 255 0 0
0.630385 0.352929 0.151937 255 0 0
0.632473 0.353049 0.151977 255 0 0
0.634770 0.352648 0.152353 255 0 0
0.636835 0.352773 0.152388 255 0 0
0.639014 0.352986 0.152340 255 0 0
0.641180 0.353203 0.152287 255 0 0
0.643346 0.353419 0.152233 255 0 0
0.645512 0.353635 0.152180 255 0 0
0.647756 0.353859 0.152124 255 0 0
0.649289 0.354027 0.152088 255 0 0
0.572798 0.338525 0.157336 255 0 0
0.574319 0.338687 0.157294 255 0 0
0.576309 0.338954 0.157183 255 0 0
0.578627 0.340162 0.156690 255 0 0
0.580954 0.341067 0.156068 255 0 0
0.582679 0.340912 0.155714 255 0 0
0.585309 0.342007 0.155208 255 0 0
0.587228 0.342237 0.155097 255 0 0
0.589380 0.342291 0.154964 255 0 0
0.591491 0.342665 0.154988 255 0 0
0.593773 0.342893 0.154924 255 0 0
0.595429 0.342872 0.154770 255 0 0
0.598363 0.345354 0.153755 255 0 0
0.600032 0.345343 0.153600 255 0 0
0.602309 0.345531 0.153516 255 0 0
0.604170 0.345711 0.153414 255 0 0
0.606880 0.346723 0.152838 255 0 0
0.608766 0.346964 0.152740 255 0 0
0.610645 0.347161 0.152638 255 0 0
0.613393 0.348162 0.152054 255 0 0
0.615256 0.348337 0.151956 255 0 0
0.617435 0.348538 0.151895 255 0 0
0.619602 0.348691 0.151833 255 0 0
0.621776 0.348894 0.151777 255 0 0
0.623938 0.349110 0.151724 255 0 0
0.626104 0.349334 0.151671 255 0 0
0.628270 0.349608 0.151625 255 0 0
0.630434 0.349837 0.151581 255 0 0
0.632497 0.349969 0.151618 255 0 0
0.634778 0.349658 0.152004 255 0 0
0.636843 0.349786 0.152042 255 0 0
0.639016 0.349999 0.151995 255 0 0
0.641177 0.350215 0.151942 255 0 0
0.643337 0.350431 0.151888 255 0 0
0.645499 0.350647 0.151835 255 0 0
0.647737 0.350870 0.151780 255 0 0
0.649267 0.351030 0.151742 255 0 0
0.572969 0.335469 0.156991 255 0 0
0.574521 0.335603 0.156932 255 0 0
0.576506 0.335660 0.156733 255 0 0
0.578802 0.336835 0.156215 255 0 0
0.580916 0.337861 0.155564 255 0 0
0.583255 0.339019 0.155021 255 0 0
0.585221 0.338892 0.154731 255 0 0
0.587129 0.339085 0.154602 255 0 0
0.589569 0.340382 0.154353 255 0 0
0.591796 0.339604 0.154469 255 0 0
0.593540 0.339730 0.154439 255 0 0
0.596110 0.341136 0.154098 255 0 0
0.598016 0.341125 0.153903 255 0 0
0.600242 0.341308 0.153824 255 0 0
0.602417 0.341529 0.153766 255 0 0
0.604262 0.341774 0.153674 255 0 0
0.606969 0.342775 0.153097 255 0 0
0.608828 0.342956 0.152996 255 0 0
0.611068 0.343173 0.152932 255 0 0
0.612660 0.343341 0.152877 255 0 0
0.615827 0.345402 0.151615 255 0 0
0.617429 0.345576 0.151559 255 0 0
0.619651 0.345805 0.151503 255 0 0
0.621809 0.346022 0.151449 255 0 0
0.623967 0.346237 0.151396 255 0 0
0.626125 0.346453 0.151343 255 0 0
0.628284 0.346665 0.151289 255 0 0
0.630494 0.346879 0.151240 255 0 0
0.632209 0.347008 0.151251 255 0 0
0.635100 0.345638 0.152290 255 0 0
0.636780 0.345747 0.152294 255 0 0
0.638989 0.345960 0.152244 255 0 0
0.641142 0.346175 0.152191 255 0 0
0.643295 0.346390 0.152138 255 0 0
0.645449 0.346606 0.152085 255 0 0
0.647681 0.346828 0.152030 255 0 0
0.649188 0.346988 0.151993 255 0 0
0.573156 0.332552 0.156663 255 0 0
0.574371 0.332745 0.156590 255 0 0
0.577007 0.333889 0.156112 255 0 0
0.578676 0.333970 0.155866 255 0 0
0.581075 0.334826 0.155210 255 0 0
0.583176 0.335826 0.154555 255 0 0
0.585535 0.337062 0.154048 255 0 0
0.587377 0.337278 0.153935 255 0 0
0.589593 0.337331 0.153794 255 0 0
0.591780 0.337725 0.153818 255 0 0
0.593832 0.337934 0.153771 255 0 0
0.596042 0.337908 0.153600 255 0 0
0.598246 0.337887 0.153429 255 0 0
0.600348 0.338060 0.153355 255 0 0
0.602499 0.338277 0.153302 255 0 0
0.604665 0.338488 0.153244 255 0 0
0.606526 0.338666 0.153145 255 0 0
0.609197 0.339940 0.152698 255 0 0
0.611044 0.340197 0.152611 255 0 0
0.613212 0.340408 0.152552 255 0 0
0.615363 0.340545 0.152491 255 0 0
0.617525 0.340745 0.152435 255 0 0
0.619671 0.340959 0.152382 255 0 0
0.621818 0.341173 0.152329 255 0 0
0.623966 0.341388 0.152276 255 0 0
0.626113 0.341603 0.152223 255 0 0
0.628260 0.341820 0.152170 255 0 0
0.630406 0.342042 0.152118 255 0 0
0.632557 0.342267 0.152066 255 0 0
0.634711 0.342551 0.152020 255 0 0
0.636839 0.342790 0.151971 255 0 0
0.638989 0.343004 0.151918 255 0 0
0.641138 0.343216 0.151864 255 0 0
0.643285 0.343424 0.151811 255 0 0
0.645434 0.343638 0.151758 255 0 0
0.647661 0.343859 0.151703 255 0 0
0.649162 0.344025 0.151667 255 0 0
0.573408 0.328502 0.156905 255 0 0
0.574646 0.328511 0.156750 255 0 0
0.577340 0.329617 0.156243 255 0 0
0.578709 0.329655 0.156055 255 0 0
0.581429 0.332004 0.154845 255 0 0
0.583288 0.332862 0.154238 255 0 0
0.585666 0.333750 0.153598 255 0 0
0.587601 0.333963 0.153465 255 0 0
0.589786 0.333981 0.153304 255 0 0
0.591883 0.334178 0.153241 255 0 0
0.594057 0.334410 0.153187 255 0 0
0.595915 0.334666 0.153104 255 0 0
0.598523 0.336111 0.152764 255 0 0
0.600387 0.336360 0.152680 255 0 0
0.602554 0.336584 0.152624 255 0 0
0.604703 0.336802 0.152572 255 0 0
0.606805 0.336982 0.152502 255 0 0
0.608969 0.336982 0.152346 255 0 0
0.611151 0.337156 0.152273 255 0 0
0.613290 0.337365 0.152219 255 0 0
0.615432 0.337582 0.152166 255 0 0
0.617574 0.337797 0.152113 255 0 0
0.619716 0.338012 0.152060 255 0 0
0.621858 0.338226 0.152008 255 0 0
0.623999 0.338444 0.151955 255 0 0
0.626138 0.338665 0.151902 255 0 0
0.628321 0.338849 0.151829 255 0 0
0.630483 0.338845 0.151675 255 0 0
0.632587 0.339019 0.151603 255 0 0
0.634734 0.339233 0.151550 255 0 0
0.636877 0.339446 0.151496 255 0 0
0.639023 0.339661 0.151445 255 0 0
0.641115 0.339918 0.151422 255 0 0
0.643261 0.340341 0.151465 255 0 0
0.645429 0.340589 0.151425 255 0 0
0.647647 0.340812 0.151371 255 0 0
0.649140 0.340975 0.151336 255 0 0
0.573299 0.325695 0.156546 255 0 0
0.575173 0.326750 0.156149 255 0 0
0.576869 0.326859 0.155898 255 0 0
0.579472 0.327934 0.155380 255 0 0
0.581170 0.327773 0.155040 255 0 0
0.583276 0.328770 0.154540 255 0 0
0.586078 0.330901 0.153231 255 0 0
0.587403 0.331048 0.153122 255 0 0
0.590105 0.332261 0.152646 255 0 0
0.592002 0.332225 0.152438 255 0 0
0.594118 0.332393 0.152360 255 0 0
0.596232 0.332580 0.152293 255 0 0
0.598390 0.332581 0.152139 255 0 0
0.600562 0.332763 0.152067 255 0 0
0.602697 0.332972 0.152013 255 0 0
0.604835 0.333177 0.151956 255 0 0
0.606982 0.333385 0.151901 255 0 0
0.609036 0.333665 0.151883 255 0 0
0.611188 0.334172 0.151943 255 0 0
0.613355 0.334425 0.151904 255 0 0
0.615487 0.334639 0.151852 255 0 0
0.617624 0.334853 0.151799 255 0 0
0.619762 0.335066 0.151747 255 0 0
0.621893 0.335277 0.151693 255 0 0
0.624085 0.335447 0.151619 255 0 0
0.626280 0.335372 0.151442 255 0 0
0.628060 0.335558 0.151342 255 0 0
0.630744 0.337071 0.151014 255 0 0
0.632587 0.337314 0.150933 255 0 0
0.634753 0.337537 0.150877 255 0 0
0.636893 0.337751 0.150824 255 0 0
0.639046 0.337959 0.150776 255 0 0
0.641074 0.338034 0.150783 255 0 0
0.643401 0.337184 0.150948 255 0 0
0.645426 0.337260 0.150955 255 0 0
0.647658 0.337473 0.150904 255 0 0
0.649131 0.337641 0.150874 255 0 0
0.573463 0.322766 0.156235 255 0 0
0.575407 0.323477 0.155716 255 0 0
0.577093 0.323596 0.155463 255 0 0
0.579400 0.324756 0.154931 255 0 0
0.581736 0.325919 0.154384 255 0 0
0.583414 0.325841 0.154044 255 0 0
0.585747 0.326651 0.153396 255 0 0
0.588196 0.327857 0.152847 255 0 0
0.589551 0.327837 0.152655 255 0 0
0.592531 0.330334 0.151634 255 0 0
0.594159 0.330481 0.151566 255 0 0
0.596354 0.330648 0.151500 255 0 0
0.598484 0.330870 0.151453 255 0 0
0.600617 0.331090 0.151402 255 0 0
0.602738 0.331322 0.151354 255 0 0
0.604874 0.331598 0.151314 255 0 0
0.607062 0.331814 0.151264 255 0 0
0.608740 0.331947 0.151261 255 0 0
0.611716 0.329996 0.152038 255 0 0
0.613389 0.330131 0.152035 255 0 0
0.615571 0.330338 0.151984 255 0 0
0.617646 0.330592 0.151964 255 0 0
0.619777 0.331011 0.152016 255 0 0
0.622038 0.331238 0.151952 255 0 0
0.623657 0.331201 0.151793 255 0 0
0.626694 0.333788 0.150799 255 0 0
0.628264 0.333902 0.150717 255 0 0
0.630487 0.333897 0.150554 255 0 0
0.632667 0.334013 0.150472 255 0 0
0.634792 0.334210 0.150417 255 0 0
0.636927 0.334424 0.150364 255 0 0
0.639059 0.334638 0.150312 255 0 0
0.641218 0.334886 0.150273 255 0 0
0.643356 0.335311 0.150316 255 0 0
0.645441 0.335568 0.150294 255 0 0
0.647658 0.335789 0.150240 255 0 0
0.649144 0.335959 0.150210 255 0 0
0.575719 0.320355 0.154869 255 0 0
0.577594 0.321419 0.154690 255 0 0
0.579307 0.321566 0.154444 255 0 0
0.581701 0.322527 0.153794 255 0 0
0.583770 0.323746 0.153240 255 0 0
0.586073 0.324674 0.152631 255 0 0
0.587696 0.324770 0.152389 255 0 0
0.590302 0.326097 0.151982 255 0 0
0.592258 0.325868 0.151674 255 0 0
0.594126 0.326022 0.151536 255 0 0
0.596749 0.327296 0.151094 255 0 0
0.598579 0.327561 0.151005 255 0 0
0.600757 0.327773 0.150953 255 0 0
0.602726 0.327872 0.150980 255 0 0
0.605105 0.327441 0.151368 255 0 0
0.607088 0.327572 0.151407 255 0 0
0.609264 0.327884 0.151383 255 0 0
0.611414 0.328398 0.151450 255 0 0
0.613450 0.328673 0.151434 255 0 0
0.615604 0.328874 0.151384 255 0 0
0.617599 0.328965 0.151395 255 0 0
0.620002 0.328295 0.151655 255 0 0
0.621667 0.328413 0.151641 255 0 0
0.624324 0.329625 0.151180 255 0 0
0.626185 0.329512 0.150967 255 0 0
0.628465 0.329652 0.150857 255 0 0
0.630300 0.329673 0.150669 255 0 0
0.632969 0.330929 0.150196 255 0 0
0.634777 0.331182 0.150111 255 0 0
0.636937 0.331403 0.150054 255 0 0
0.639067 0.331616 0.150001 255 0 0
0.641196 0.331827 0.149948 255 0 0
0.643325 0.332036 0.149896 255 0 0
0.645457 0.332253 0.149843 255 0 0
0.647667 0.332475 0.149788 255 0 0
0.649136 0.332635 0.149754 255 0 0
0.575973 0.319440 0.154121 0 0 0
0.577527 0.319331 0.153796 255 0 0
0.579459 0.319529 0.153602 255 0 0
0.581786 0.320503 0.152993 255 0 0
0.583842 0.321460 0.152352 255 0 0
0.586209 0.322665 0.151823 255 0 0
0.588110 0.322695 0.151582 255 0 0
0.589961 0.322699 0.151371 255 0 0
0.592574 0.324166 0.151035 255 0 0
0.594375 0.324374 0.150929 255 0 0
0.596591 0.324339 0.150746 255 0 0
0.598728 0.324342 0.150597 255 0 0
0.600821 0.324716 0.150630 255 0 0
0.602863 0.324860 0.150677 255 0 0
0.605203 0.324270 0.150988 255 0 0
0.607027 0.324437 0.151166 255 0 0
0.609465 0.323773 0.151457 255 0 0
0.611444 0.323871 0.151470 255 0 0
0.613521 0.324111 0.151454 255 0 0
0.615684 0.324500 0.151487 255 0 0
0.617860 0.324545 0.151339 255 0 0
0.619932 0.324780 0.151278 255 0 0
0.622066 0.325011 0.151225 255 0 0
0.623893 0.325172 0.151124 255 0 0
0.626649 0.326442 0.150646 255 0 0
0.628176 0.326523 0.150441 255 0 0
0.630786 0.327950 0.150066 255 0 0
0.632632 0.327978 0.149882 255 0 0
0.634827 0.328163 0.149803 255 0 0
0.636949 0.328372 0.149749 255 0 0
0.639073 0.328584 0.149697 255 0 0
0.641194 0.328791 0.149643 255 0 0
0.643361 0.328972 0.149568 255 0 0
0.645508 0.328961 0.149407 255 0 0
0.647671 0.329139 0.149332 255 0 0
0.649126 0.329311 0.149304 255 0 0
0.575938 0.316377 0.153427 0 0 0
0.577889 0.317405 0.153026 255 0 0
0.579489 0.317712 0.152871 255 0 0
0.581812 0.318666 0.152268 255 0 0
0.584170 0.319571 0.151600 255 0 0
0.585774 0.319693 0.151348 255 0 0
0.588448 0.320829 0.150855 255 0 0
0.590245 0.321042 0.150748 255 0 0
0.592409 0.321051 0.150585 255 0 0
0.594602 0.321242 0.150507 255 0 0
0.596429 0.321511 0.150414 255 0 0
0.598912 0.322540 0.150054 255 0 0
0.601025 0.322020 0.150273 255 0 0
0.603066 0.322127 0.150320 255 0 0
0.605064 0.322417 0.150442 255 0 0
0.607423 0.321915 0.150772 255 0 0
0.609398 0.322200 0.150900 255 0 0
0.611490 0.322444 0.150892 255 0 0
0.613510 0.322528 0.150908 255 0 0
0.615543 0.322038 0.151112 255 0 0
0.618074 0.323049 0.150770 255 0 0
0.619918 0.323277 0.150678 255 0 0
0.622070 0.323501 0.150622 255 0 0
0.624170 0.323680 0.150544 255 0 0
0.625982 0.323727 0.150353 255 0 0
0.628680 0.324844 0.149844 255 0 0
0.630520 0.324858 0.149651 255 0 0
0.632715 0.325052 0.149571 255 0 0
0.634830 0.325263 0.149517 255 0 0
0.636949 0.325475 0.149465 255 0 0
0.639069 0.325687 0.149412 255 0 0
0.641221 0.325906 0.149355 255 0 0
0.643000 0.326155 0.149271 255 0 0
0.645745 0.327371 0.148807 255 0 0
0.647635 0.327600 0.148720 255 0 0
0.649134 0.327770 0.148686 255 0 0
