ply
format ascii 1.0
element vertex 476
property float x
property float y
property float z
property uchar red
property uchar green
property uchar blue
end_header
0.555347 0.287518 0.118227 255 0 0
0.556781 0.288307 0.118116 255 0 0
0.558456 0.289827 0.117596 255 0 0
0.559921 0.292245 0.116454 255 0 0
0.562996 0.291942 0.117287 255 0 0
0.564624 0.294545 0.116274 255 0 0
0.565801 0.295148 0.116199 255 0 0
0.555509 0.282610 0.118549 255 0 0
0.557071 0.283353 0.118501 255 0 0
0.559168 0.284443 0.118346 255 0 0
0.560783 0.285789 0.117815 255 0 0
0.562534 0.288671 0.116656 255 0 0
0.564171 0.289621 0.116594 255 0 0
0.566226 0.290549 0.116433 255 0 0
0.568236 0.292217 0.115928 255 0 0
0.570229 0.293218 0.115800 255 0 0
0.572237 0.294289 0.115661 255 0 0
0.573754 0.295656 0.115213 255 0 0
0.555499 0.277841 0.118784 255 0 0
0.556921 0.279183 0.118356 255 0 0
0.558952 0.280291 0.118211 255 0 0
0.560640 0.281155 0.118115 255 0 0
0.562523 0.283884 0.117041 255 0 0
0.564335 0.284639 0.116890 255 0 0
0.566339 0.285676 0.116756 255 0 0
0.568337 0.287340 0.116253 255 0 0
0.570117 0.288366 0.116071 255 0 0
0.572131 0.290049 0.115565 255 0 0
0.574125 0.291092 0.115440 255 0 0
0.575819 0.291938 0.115348 255 0 0
0.577942 0.294629 0.114199 255 0 0
0.579089 0.295217 0.114130 255 0 0
0.555464 0.273441 0.118593 255 0 0
0.556999 0.274210 0.118559 255 0 0
0.559180 0.275216 0.118496 255 0 0
0.561331 0.276239 0.118434 255 0 0
0.562998 0.277085 0.118347 255 0 0
0.564905 0.279899 0.117268 255 0 0
0.566584 0.280760 0.117173 255 0 0
0.568560 0.281806 0.117045 255 0 0
0.570555 0.283436 0.116546 255 0 0
0.572506 0.284467 0.116420 255 0 0
0.574448 0.285493 0.116295 255 0 0
0.576461 0.287136 0.115792 255 0 0
0.578443 0.288182 0.115667 255 0 0
0.580111 0.289035 0.115577 255 0 0
0.582197 0.291715 0.114418 255 0 0
0.583683 0.292565 0.114278 255 0 0
0.585840 0.294290 0.113756 255 0 0
0.587230 0.295012 0.113657 255 0 0
0.554641 0.270164 0.117850 255 0 0
0.556147 0.271078 0.117875 255 0 0
0.558272 0.272114 0.117827 255 0 0
0.560378 0.273108 0.117769 255 0 0
0.562477 0.274107 0.117713 255 0 0
0.564551 0.275064 0.117645 255 0 0
0.566751 0.275916 0.117540 255 0 0
0.568867 0.276889 0.117477 255 0 0
0.570977 0.277893 0.117414 255 0 0
0.572894 0.278906 0.117294 255 0 0
0.574877 0.280562 0.116795 255 0 0
0.576830 0.281579 0.116663 255 0 0
0.578838 0.282479 0.116500 255 0 0
0.580774 0.284211 0.116035 255 0 0
0.582738 0.285259 0.115911 255 0 0
0.584408 0.286103 0.115818 255 0 0
0.586276 0.288858 0.114579 255 0 0
0.587710 0.290345 0.114012 255 0 0
0.589633 0.292105 0.113419 255 0 0
0.591141 0.292953 0.113263 255 0 0
0.592756 0.295369 0.112140 255 0 0
0.553110 0.267239 0.116568 255 0 0
0.556540 0.266639 0.117260 255 0 0
0.558155 0.267436 0.117285 255 0 0
0.560238 0.268613 0.117413 255 0 0
0.562348 0.269662 0.117398 255 0 0
0.564158 0.270622 0.117442 255 0 0
0.566931 0.271306 0.117770 255 0 0
0.568668 0.272751 0.117358 255 0 0
0.570606 0.273790 0.117230 255 0 0
0.572708 0.274791 0.117168 255 0 0
0.574820 0.275761 0.117104 255 0 0
0.577059 0.276625 0.116993 255 0 0
0.578688 0.277399 0.116898 255 0 0
0.580543 0.280385 0.115848 255 0 0
0.582261 0.281103 0.115725 255 0 0
0.584436 0.282113 0.115649 255 0 0
0.586359 0.283117 0.115521 255 0 0
0.588188 0.284766 0.114954 255 0 0
0.589888 0.286473 0.114314 255 0 0
0.591792 0.288157 0.113731 255 0 0
0.593247 0.288995 0.113588 255 0 0
0.595335 0.291727 0.112421 255 0 0
0.597013 0.292571 0.112331 255 0 0
0.598970 0.293599 0.112209 255 0 0
0.601108 0.295314 0.111688 255 0 0
0.602455 0.296036 0.111594 255 0 0
0.555345 0.264438 0.116303 255 0 0
0.556770 0.265422 0.116473 255 0 0
0.558606 0.266330 0.116516 255 0 0
0.561697 0.266740 0.116695 255 0 0
0.563100 0.267304 0.116709 255 0 0
0.567098 0.267007 0.117621 255 0 0
0.568722 0.267768 0.117613 255 0 0
0.570869 0.268751 0.117555 255 0 0
0.572955 0.269733 0.117498 255 0 0
0.575081 0.270748 0.117436 255 0 0
0.576711 0.271575 0.117353 255 0 0
0.578551 0.274605 0.116317 255 0 0
0.580200 0.275372 0.116213 255 0 0
0.582223 0.276266 0.116043 255 0 0
0.584228 0.277943 0.115535 255 0 0
0.586144 0.278960 0.115409 255 0 0
0.588063 0.279950 0.115283 255 0 0
0.590128 0.281623 0.114763 255 0 0
0.591682 0.282317 0.114578 255 0 0
0.593650 0.285169 0.113456 255 0 0
0.595308 0.285998 0.113364 255 0 0
0.597267 0.287000 0.113239 255 0 0
0.599323 0.288663 0.112725 255 0 0
0.601240 0.289674 0.112602 255 0 0
0.603152 0.290680 0.112481 255 0 0
0.605290 0.292395 0.111959 255 0 0
0.606616 0.293108 0.111865 255 0 0
0.553638 0.258140 0.116390 255 0 0
0.555015 0.258918 0.116304 255 0 0
0.556916 0.260754 0.116023 255 0 0
0.558624 0.261602 0.115955 255 0 0
0.561585 0.262013 0.116166 255 0 0
0.563405 0.263042 0.116348 255 0 0
0.565383 0.263940 0.116390 255 0 0
0.568163 0.264465 0.116664 255 0 0
0.569901 0.265611 0.116881 255 0 0
0.572040 0.266679 0.116865 255 0 0
0.574111 0.267659 0.116810 255 0 0
0.576192 0.268647 0.116753 255 0 0
0.578269 0.269583 0.116677 255 0 0
0.580242 0.270453 0.116511 255 0 0
0.582232 0.272112 0.116004 255 0 0
0.584141 0.273098 0.115876 255 0 0
0.586352 0.273948 0.115759 255 0 0
0.588224 0.274889 0.115633 255 0 0
0.590223 0.276721 0.115163 255 0 0
0.591721 0.277437 0.114987 255 0 0
0.593604 0.280399 0.113904 255 0 0
0.595314 0.281097 0.113780 255 0 0
0.597487 0.282077 0.113708 255 0 0
0.599587 0.283067 0.113645 255 0 0
0.601471 0.284058 0.113529 255 0 0
0.603511 0.285752 0.113016 255 0 0
0.605397 0.286746 0.112899 255 0 0
0.607502 0.287747 0.112837 255 0 0
0.609592 0.288735 0.112780 255 0 0
0.611682 0.289724 0.112723 255 0 0
0.613773 0.290713 0.112666 255 0 0
0.615936 0.291737 0.112607 255 0 0
0.617435 0.292446 0.112566 255 0 0
0.552605 0.255293 0.115869 255 0 0
0.553872 0.256922 0.115687 255 0 0
0.555695 0.257914 0.115557 255 0 0
0.557888 0.258750 0.115308 255 0 0
0.560064 0.259763 0.115255 255 0 0
0.561875 0.260762 0.115427 255 0 0
0.564789 0.261156 0.115645 255 0 0
0.566751 0.262024 0.115667 255 0 0
0.568354 0.262951 0.115816 255 0 0
0.572399 0.262211 0.116293 255 0 0
0.573967 0.262987 0.116317 255 0 0
0.576030 0.264146 0.116435 255 0 0
0.578127 0.265160 0.116408 255 0 0
0.580193 0.266142 0.116354 255 0 0
0.582263 0.267115 0.116296 255 0 0
0.584393 0.268103 0.116232 255 0 0
0.586003 0.268915 0.116150 255 0 0
0.587854 0.271967 0.115105 255 0 0
0.589478 0.272753 0.115005 255 0 0
0.591475 0.273655 0.114838 255 0 0
0.593419 0.275392 0.114363 255 0 0
0.595402 0.276269 0.114197 255 0 0
0.597323 0.277243 0.114065 255 0 0
0.599332 0.278937 0.113557 255 0 0
0.601210 0.279933 0.113438 255 0 0
0.603303 0.280922 0.113375 255 0 0
0.605395 0.281881 0.113316 255 0 0
0.607509 0.282852 0.113252 255 0 0
0.609637 0.283703 0.113157 255 0 0
0.611630 0.284795 0.113138 255 0 0
0.613725 0.285818 0.113089 255 0 0
0.615801 0.286802 0.113033 255 0 0
0.617882 0.287786 0.112976 255 0 0
0.619963 0.288770 0.112919 255 0 0
0.622119 0.289788 0.112861 255 0 0
0.623601 0.290489 0.112820 255 0 0
0.552632 0.251086 0.115755 255 0 0
0.554295 0.251543 0.115490 255 0 0
0.556204 0.252423 0.115316 255 0 0
0.558024 0.254228 0.115052 255 0 0
0.559927 0.255271 0.114941 255 0 0
0.562005 0.256283 0.114892 255 0 0
0.563795 0.257216 0.114935 255 0 0
0.566808 0.257703 0.115303 255 0 0
0.568600 0.258514 0.115307 255 0 0
0.570683 0.259725 0.115335 255 0 0
0.572730 0.260930 0.115478 255 0 0
0.574483 0.261717 0.115495 255 0 0
0.577352 0.262221 0.115722 255 0 0
0.579263 0.263067 0.115734 255 0 0
0.581347 0.264052 0.115683 255 0 0
0.583413 0.265031 0.115627 255 0 0
0.585482 0.266016 0.115572 255 0 0
0.587531 0.266933 0.115501 255 0 0
0.589697 0.267778 0.115392 255 0 0
0.591653 0.268761 0.115241 255 0 0
0.593679 0.270257 0.114700 255 0 0
0.595563 0.271204 0.114564 255 0 0
0.597500 0.272207 0.114422 255 0 0
0.599472 0.273884 0.113932 255 0 0
0.601343 0.274836 0.113808 255 0 0
0.603434 0.275827 0.113746 255 0 0
0.605505 0.276807 0.113689 255 0 0
0.607622 0.277819 0.113628 255 0 0
0.609232 0.278637 0.113545 255 0 0
0.610737 0.281474 0.112560 255 0 0
0.614189 0.280951 0.113421 255 0 0
0.615805 0.281684 0.113405 255 0 0
0.617898 0.282699 0.113361 255 0 0
0.619911 0.283809 0.113351 255 0 0
0.621992 0.284821 0.113302 255 0 0
0.624135 0.285837 0.113244 255 0 0
0.625601 0.286529 0.113204 255 0 0
0.555269 0.250752 0.114706 255 0 0
0.556809 0.251403 0.114596 255 0 0
0.559019 0.252258 0.114358 255 0 0
0.561160 0.253231 0.114272 255 0 0
0.562978 0.254052 0.114268 255 0 0
0.566014 0.254551 0.114644 255 0 0
0.567822 0.255495 0.114684 255 0 0
0.569405 0.256254 0.114679 255 0 0
0.572997 0.255793 0.115542 255 0 0
0.574431 0.258538 0.114566 255 0 0
0.575588 0.259150 0.114527 255 0 0
0.579586 0.258853 0.115440 255 0 0
0.581153 0.259577 0.115420 255 0 0
0.583271 0.260572 0.115364 255 0 0
0.585330 0.261547 0.115308 255 0 0
0.587385 0.262526 0.115253 255 0 0
0.589429 0.263521 0.115201 255 0 0
0.591580 0.264517 0.115107 255 0 0
0.593305 0.265166 0.114856 255 0 0
0.594987 0.268309 0.114015 255 0 0
0.596646 0.269135 0.113908 255 0 0
0.598538 0.270130 0.113780 255 0 0
0.600514 0.271809 0.113289 255 0 0
0.602441 0.272776 0.113150 255 0 0
0.604518 0.273754 0.113087 255 0 0
0.606585 0.274732 0.113030 255 0 0
0.608654 0.275714 0.112975 255 0 0
0.610701 0.276635 0.112906 255 0 0
0.612863 0.277504 0.112810 255 0 0
0.614871 0.278660 0.112799 255 0 0
0.616916 0.279662 0.112757 255 0 0
0.618803 0.280465 0.112755 255 0 0
0.621688 0.280866 0.113106 255 0 0
0.623561 0.281658 0.113108 255 0 0
0.625726 0.282677 0.113054 255 0 0
0.627180 0.283365 0.113015 255 0 0
0.557385 0.247320 0.114173 255 0 0
0.558850 0.247981 0.114132 255 0 0
0.561012 0.248984 0.114077 255 0 0
0.562832 0.249769 0.114074 255 0 0
0.565902 0.250227 0.114443 255 0 0
0.567466 0.250852 0.114488 255 0 0
0.570296 0.251599 0.114953 255 0 0
0.572188 0.252494 0.114988 255 0 0
0.574161 0.253574 0.114973 255 0 0
0.576272 0.254415 0.114880 255 0 0
0.578367 0.255418 0.114826 255 0 0
0.580340 0.256549 0.114818 255 0 0
0.582355 0.257535 0.114772 255 0 0
0.584415 0.258506 0.114715 255 0 0
0.586464 0.259475 0.114658 255 0 0
0.588583 0.260427 0.114570 255 0 0
0.590841 0.261099 0.114275 255 0 0
0.592657 0.262002 0.114133 255 0 0
0.594362 0.263975 0.114012 255 0 0
0.596421 0.264685 0.113693 255 0 0
0.598555 0.265647 0.113598 255 0 0
0.600619 0.266621 0.113535 255 0 0
0.602480 0.267586 0.113421 255 0 0
0.604421 0.269412 0.112962 255 0 0
0.606266 0.270401 0.112845 255 0 0
0.608339 0.271390 0.112783 255 0 0
0.610399 0.272365 0.112727 255 0 0
0.612484 0.273345 0.112675 255 0 0
0.614345 0.274134 0.112677 255 0 0
0.617252 0.274533 0.113028 255 0 0
0.619066 0.275347 0.113039 255 0 0
0.621077 0.276502 0.113037 255 0 0
0.623133 0.277538 0.112990 255 0 0
0.625180 0.278516 0.112935 255 0 0
0.627265 0.279496 0.112884 255 0 0
0.629198 0.280291 0.112905 255 0 0
0.631343 0.280630 0.113279 255 0 0
0.561273 0.245236 0.113943 255 0 0
0.562712 0.245911 0.113904 255 0 0
0.564872 0.246929 0.113854 255 0 0
0.566902 0.248046 0.113847 255 0 0
0.568444 0.248836 0.113860 255 0 0
0.572364 0.248651 0.114832 255 0 0
0.573907 0.249372 0.114817 255 0 0
0.576036 0.250354 0.114756 255 0 0
0.578159 0.251206 0.114658 255 0 0
0.580195 0.252123 0.114588 255 0 0
0.582245 0.253090 0.114531 255 0 0
0.584288 0.254064 0.114476 255 0 0
0.586320 0.255053 0.114424 255 0 0
0.588462 0.256042 0.114330 255 0 0
0.590173 0.256691 0.114080 255 0 0
0.591743 0.260025 0.113458 255 0 0
0.593337 0.260781 0.113332 255 0 0
0.595521 0.261616 0.113095 255 0 0
0.597612 0.262598 0.113013 255 0 0
0.599657 0.263571 0.112957 255 0 0
0.601711 0.264544 0.112901 255 0 0
0.603751 0.265471 0.112832 255 0 0
0.605875 0.266320 0.112732 255 0 0
0.607951 0.267276 0.112670 255 0 0
0.610002 0.268245 0.112613 255 0 0
0.612049 0.269220 0.112558 255 0 0
0.614085 0.270215 0.112504 255 0 0
0.616149 0.271227 0.112456 255 0 0
0.618197 0.272351 0.112448 255 0 0
0.619738 0.273088 0.112444 255 0 0
0.623548 0.272840 0.113430 255 0 0
0.625109 0.273558 0.113419 255 0 0
0.627217 0.274551 0.113365 255 0 0
0.629332 0.275563 0.113308 255 0 0
0.630746 0.276271 0.113271 255 0 0
0.567229 0.244110 0.113677 255 0 0
0.568429 0.244602 0.113693 255 0 0
0.571238 0.245108 0.114182 255 0 0
0.573916 0.245549 0.114654 255 0 0
0.575736 0.246320 0.114654 255 0 0
0.577631 0.247326 0.114529 255 0 0
0.579485 0.249072 0.114084 255 0 0
0.581335 0.250070 0.113965 255 0 0
0.583383 0.251048 0.113903 255 0 0
0.585492 0.251993 0.113814 255 0 0
0.587743 0.252655 0.113517 255 0 0
0.589547 0.253552 0.113374 255 0 0
0.591226 0.255509 0.113255 255 0 0
0.593279 0.256213 0.112935 255 0 0
0.595394 0.257176 0.112841 255 0 0
0.597487 0.258131 0.112751 255 0 0
0.599629 0.258929 0.112504 255 0 0
0.601627 0.259840 0.112405 255 0 0
0.603677 0.260812 0.112348 255 0 0
0.605730 0.261781 0.112292 255 0 0
0.607703 0.262749 0.112276 255 0 0
0.609688 0.263894 0.112412 255 0 0
0.611792 0.264911 0.112393 255 0 0
0.613615 0.265696 0.112401 255 0 0
0.616301 0.266413 0.112852 255 0 0
0.618182 0.267284 0.112886 255 0 0
0.620267 0.268269 0.112842 255 0 0
0.622130 0.269084 0.112856 255 0 0
0.624873 0.269701 0.113263 255 0 0
0.626715 0.270492 0.113272 255 0 0
0.628858 0.271502 0.113218 255 0 0
0.630273 0.272178 0.113179 255 0 0
0.576042 0.242588 0.114564 255 0 0
0.577456 0.243264 0.114520 255 0 0
0.579373 0.244281 0.114388 255 0 0
0.581327 0.245834 0.113886 255 0 0
0.583299 0.246666 0.113702 255 0 0
0.585405 0.247590 0.113590 255 0 0
0.587103 0.248262 0.113342 255 0 0
0.588643 0.251601 0.112724 255 0 0
0.590222 0.252349 0.112596 255 0 0
0.592394 0.253177 0.112358 255 0 0
0.594496 0.254141 0.112268 255 0 0
0.596610 0.255003 0.112166 255 0 0
0.598436 0.255965 0.112054 255 0 0
0.600242 0.257941 0.111819 255 0 0
0.602103 0.258919 0.111718 255 0 0
0.604155 0.259899 0.111658 255 0 0
0.606220 0.260868 0.111604 255 0 0
0.608078 0.261688 0.111600 255 0 0
0.610941 0.262045 0.111774 255 0 0
0.612858 0.262866 0.111775 255 0 0
0.614451 0.263644 0.111788 255 0 0
0.618161 0.263030 0.112788 255 0 0
0.620413 0.263365 0.113201 255 0 0
0.622290 0.264329 0.113289 255 0 0
0.624157 0.265158 0.113315 255 0 0
0.626966 0.265811 0.113725 255 0 0
0.628181 0.266331 0.113748 255 0 0
0.584959 0.244893 0.113054 255 0 0
0.586374 0.245457 0.112895 255 0 0
0.588150 0.247132 0.112562 255 0 0
0.590201 0.247790 0.112218 255 0 0
0.592314 0.248736 0.112119 255 0 0
0.594399 0.249700 0.112025 255 0 0
0.596325 0.250541 0.111751 255 0 0
0.598081 0.252449 0.111467 255 0 0
0.599906 0.253419 0.111352 255 0 0
0.602015 0.254290 0.111252 255 0 0
0.604074 0.255243 0.111190 255 0 0
0.606115 0.256192 0.111133 255 0 0
0.608176 0.257160 0.111082 255 0 0
0.610005 0.257962 0.111093 255 0 0
0.612803 0.258534 0.111494 255 0 0
0.614460 0.259157 0.111573 255 0 0
0.617245 0.259778 0.112008 255 0 0
0.618829 0.260779 0.112208 255 0 0
0.621377 0.261242 0.112690 255 0 0
0.624101 0.261514 0.113116 255 0 0
0.625461 0.262036 0.113174 255 0 0
0.628601 0.261764 0.114228 255 0 0
0.588073 0.243516 0.112167 255 0 0
0.589446 0.244735 0.111748 255 0 0
0.591368 0.245796 0.111590 255 0 0
0.593413 0.246777 0.111521 255 0 0
0.595335 0.247747 0.111382 255 0 0
0.597170 0.249324 0.111013 255 0 0
0.599117 0.250080 0.110717 255 0 0
0.601268 0.251027 0.110590 255 0 0
0.603399 0.251817 0.110354 255 0 0
0.605316 0.252727 0.110297 255 0 0
0.607271 0.253905 0.110431 255 0 0
0.609347 0.254924 0.110415 255 0 0
0.611235 0.255732 0.110429 255 0 0
0.613999 0.256063 0.110652 255 0 0
0.615582 0.257061 0.110956 255 0 0
0.617993 0.257321 0.111372 255 0 0
0.621435 0.256723 0.112512 255 0 0
0.623531 0.256890 0.113005 255 0 0
0.626106 0.257579 0.113575 255 0 0
0.627369 0.258158 0.113632 255 0 0
0.597320 0.244606 0.111215 255 0 0
0.598725 0.247060 0.110149 255 0 0
0.600349 0.247859 0.110024 255 0 0
0.602231 0.248869 0.109904 255 0 0
0.604104 0.250684 0.109615 255 0 0
0.605755 0.251493 0.109561 255 0 0
0.608734 0.251715 0.109693 255 0 0
0.610566 0.252480 0.109684 255 0 0
0.612659 0.253532 0.109681 255 0 0
0.614129 0.254562 0.109881 255 0 0
0.618024 0.254055 0.110642 255 0 0
0.619102 0.254649 0.110742 255 0 0
0.622638 0.254587 0.111918 255 0 0
0.624212 0.254872 0.112365 255 0 0
0.602714 0.244934 0.109838 255 0 0
0.603894 0.245579 0.109738 255 0 0
0.605966 0.247197 0.109215 255 0 0
0.607923 0.248033 0.109042 255 0 0
0.609866 0.249056 0.109009 255 0 0
0.611889 0.250048 0.108970 255 0 0
0.613703 0.250821 0.108979 255 0 0
0.616402 0.251112 0.109421 255 0 0
0.618884 0.251718 0.109959 255 0 0
0.620219 0.252457 0.110111 255 0 0
0.623502 0.252344 0.111265 255 0 0
0.626205 0.251697 0.112275 255 0 0
0.609479 0.246262 0.108440 255 0 0
0.610911 0.246899 0.108392 255 0 0
0.613023 0.247894 0.108343 255 0 0
0.614881 0.248711 0.108381 255 0 0
0.617551 0.249120 0.108887 255 0 0
0.619609 0.249250 0.109346 255 0 0
0.622627 0.248676 0.110432 255 0 0
0.615755 0.244158 0.108797 255 0 0
0.617135 0.244813 0.108766 255 0 0
0.619068 0.245678 0.108798 255 0 0
0.621228 0.246119 0.109221 255 0 0
